<svg width="858" height="465" viewBox="0 0 858 465" fill="none" xmlns="http://www.w3.org/2000/svg">
<path d="M208.545 314.727H223.659" stroke="black"/>
<path d="M211.727 323.477C211.727 323.477 212.523 327.455 215.705 327.455C218.886 327.455 221.273 323.477 221.273 323.477H224.455C224.455 323.477 225.199 321.083 225.25 319.5C225.311 317.611 224.455 314.727 224.455 314.727H222.864C222.864 314.727 223.552 309.331 224.455 305.977C225.525 302 234 295.222 234 286.886C234 279.727 228.432 267 215.705 267C202.977 267 199 279.727 199 286.886C199 294.045 207.643 302.624 208.545 305.977C209.448 309.331 210.136 314.727 210.136 314.727H208.545C208.545 314.727 206.839 317.539 206.955 319.5C207.053 321.17 208.545 323.477 208.545 323.477H211.727Z" fill="#F5ED00" fill-opacity="0.1" stroke="black" stroke-width="3"/>
<path d="M209.341 322.682H222.864" stroke="black" stroke-width="2"/>
<path d="M209.341 316.318H222.864" stroke="black" stroke-width="2"/>
<path d="M213.318 314.727C213.318 314.727 207.75 294.045 207.75 286.886C207.75 279.727 209.755 290.33 211.727 290.068C214.267 289.731 210.818 284.26 213.318 283.705C216.031 283.102 213.722 290.068 216.5 290.068C219.278 290.068 216.937 283.274 219.682 283.705C222.461 284.14 217.749 290.178 220.477 290.864C222.83 291.455 225.25 279.727 225.25 286.886C225.25 294.045 218.886 314.727 218.886 314.727" stroke="black" stroke-width="2"/>
<path d="M456.402 394.927C453.764 382.911 462.402 374.871 462.402 374.871C462.402 374.871 472.546 384.4 474.734 391.898C476.904 399.332 474.142 412.001 474.142 412.001C474.142 412.001 459.04 406.943 456.402 394.927Z" fill="#B4D2FF" stroke="black"/>
<path d="M482.192 427.049C454.328 410.025 404.079 415.409 404.079 415.409C404.079 415.409 446.341 387.766 458.407 355.975" stroke="black" stroke-width="3" stroke-linecap="round"/>
<path d="M463.21 393.461C459.957 384.835 466.523 379.345 466.523 379.345C466.523 379.345 469.566 380.342 473.624 392.027C477.682 403.712 474.624 404.517 474.624 404.517C474.624 404.517 466.463 402.088 463.21 393.461Z" fill="black" stroke="black"/>
<path d="M450.941 369.223C450.941 369.223 465.202 371.845 472.818 388.969C480.435 406.093 469.91 420.147 469.91 420.147" stroke="black" stroke-width="3"/>
<path d="M822 393V231C834.167 236.167 858.4 259.4 858 311C857.6 362.6 833.833 387.167 822 393Z" fill="#D9D9D9"/>
<path d="M822 231.5V393" stroke="#595959" stroke-width="3"/>
<path d="M834.599 163.672L679 118.582C687.349 108.334 716.409 91.5251 765.859 106.271C815.308 121.017 832.289 150.682 834.599 163.672Z" fill="#D9D9D9"/>
<path d="M679.48 118.721L834.599 163.672" stroke="#595959" stroke-width="3"/>
<path d="M378.919 34.983L221.517 73.3054C223.659 60.2619 240.501 31.2203 290.731 19.4025C340.961 7.58478 370.452 24.8654 378.919 34.983Z" fill="#D9D9D9"/>
<path d="M222.003 73.1871L378.919 34.983" stroke="#595959" stroke-width="3"/>
<path d="M67.1782 150.085L35.301 308.918C24.3889 301.458 5.20102 273.91 15.7467 223.398C26.2923 172.885 54.4284 153.476 67.1782 150.085Z" fill="#D9D9D9"/>
<path d="M35.3994 308.427L67.1782 150.085" stroke="#595959" stroke-width="3"/>
<path d="M479 393L822 312" stroke="black" stroke-width="3"/>
<path d="M766.617 162.633C765.861 162.292 764.973 162.628 764.633 163.383L759.083 175.69C758.742 176.445 759.078 177.333 759.833 177.674C760.589 178.014 761.477 177.678 761.817 176.923L766.751 165.984L777.69 170.917C778.445 171.258 779.333 170.922 779.674 170.167C780.014 169.411 779.678 168.523 778.923 168.183L766.617 162.633ZM823.403 311.469L767.403 163.469L764.597 164.531L820.597 312.531L823.403 311.469Z" fill="black"/>
<path d="M199 282L53 230" stroke="black" stroke-width="3"/>
<path d="M283.478 68.2533C283.618 67.4368 283.07 66.6615 282.253 66.5215L268.947 64.2415C268.131 64.1016 267.355 64.6501 267.215 65.4666C267.076 66.2831 267.624 67.0585 268.441 67.1984L280.268 69.2251L278.241 81.0527C278.102 81.8692 278.65 82.6446 279.467 82.7845C280.283 82.9244 281.058 82.3759 281.198 81.5594L283.478 68.2533ZM53.8663 231.225L282.866 69.2246L281.134 66.7754L52.1337 228.775L53.8663 231.225Z" fill="black"/>
<line x1="53.1632" y1="226.509" x2="822.133" y2="310.681" stroke="black" stroke-width="3" stroke-dasharray="6 6"/>
<line x1="52.8173" y1="228.511" x2="761.817" y2="141.511" stroke="black" stroke-width="3" stroke-dasharray="6 6"/>
<line x1="296.654" y1="55.6502" x2="822.654" y2="310.65" stroke="black" stroke-width="3" stroke-dasharray="6 6"/>
<line x1="296.272" y1="55.5249" x2="762.272" y2="141.525" stroke="black" stroke-width="3" stroke-dasharray="6 6"/>
<circle cx="759.5" cy="146.5" r="15" fill="#2FA93D" stroke="black" stroke-width="5"/>
<circle cx="116.5" cy="409.5" r="15" fill="#D9362B" stroke="black" stroke-width="5"/>
<circle cx="116.5" cy="368.5" r="15" fill="#2FA93D" stroke="black" stroke-width="5"/>
<path d="M148.502 377.227C147.451 377.227 146.545 376.995 145.782 376.531C145.025 376.062 144.44 375.409 144.028 374.571C143.621 373.728 143.417 372.748 143.417 371.631C143.417 370.513 143.621 369.528 144.028 368.676C144.44 367.819 145.013 367.152 145.747 366.673C146.485 366.19 147.347 365.949 148.332 365.949C148.9 365.949 149.461 366.044 150.015 366.233C150.569 366.422 151.074 366.73 151.528 367.156C151.983 367.578 152.345 368.136 152.615 368.832C152.885 369.528 153.02 370.385 153.02 371.403V372.114H144.61V370.665H151.315C151.315 370.049 151.192 369.5 150.946 369.017C150.704 368.534 150.359 368.153 149.909 367.874C149.464 367.594 148.938 367.455 148.332 367.455C147.664 367.455 147.087 367.62 146.599 367.952C146.116 368.278 145.744 368.705 145.484 369.23C145.224 369.756 145.093 370.319 145.093 370.92V371.886C145.093 372.71 145.235 373.409 145.52 373.982C145.808 374.55 146.208 374.983 146.72 375.281C147.231 375.575 147.825 375.722 148.502 375.722C148.943 375.722 149.341 375.66 149.696 375.537C150.056 375.409 150.366 375.22 150.626 374.969C150.886 374.713 151.088 374.396 151.23 374.017L152.849 374.472C152.679 375.021 152.392 375.504 151.99 375.92C151.587 376.332 151.09 376.654 150.498 376.886C149.906 377.114 149.241 377.227 148.502 377.227ZM156.317 381.091C156.033 381.091 155.779 381.067 155.557 381.02C155.334 380.977 155.18 380.935 155.095 380.892L155.521 379.415C155.929 379.519 156.288 379.557 156.601 379.528C156.913 379.5 157.19 379.36 157.432 379.109C157.678 378.863 157.903 378.463 158.107 377.909L158.419 377.057L154.385 366.091H156.203L159.214 374.784H159.328L162.339 366.091H164.158L159.527 378.591C159.319 379.154 159.061 379.621 158.753 379.99C158.445 380.364 158.088 380.641 157.68 380.821C157.278 381.001 156.823 381.091 156.317 381.091ZM170.553 377.227C169.502 377.227 168.595 376.995 167.833 376.531C167.076 376.062 166.491 375.409 166.079 374.571C165.672 373.728 165.468 372.748 165.468 371.631C165.468 370.513 165.672 369.528 166.079 368.676C166.491 367.819 167.064 367.152 167.798 366.673C168.536 366.19 169.398 365.949 170.383 365.949C170.951 365.949 171.512 366.044 172.066 366.233C172.62 366.422 173.124 366.73 173.579 367.156C174.033 367.578 174.396 368.136 174.665 368.832C174.935 369.528 175.07 370.385 175.07 371.403V372.114H166.661V370.665H173.366C173.366 370.049 173.243 369.5 172.996 369.017C172.755 368.534 172.409 368.153 171.96 367.874C171.514 367.594 170.989 367.455 170.383 367.455C169.715 367.455 169.138 367.62 168.65 367.952C168.167 368.278 167.795 368.705 167.535 369.23C167.274 369.756 167.144 370.319 167.144 370.92V371.886C167.144 372.71 167.286 373.409 167.57 373.982C167.859 374.55 168.259 374.983 168.771 375.281C169.282 375.575 169.876 375.722 170.553 375.722C170.994 375.722 171.391 375.66 171.746 375.537C172.106 375.409 172.416 375.22 172.677 374.969C172.937 374.713 173.138 374.396 173.281 374.017L174.9 374.472C174.729 375.021 174.443 375.504 174.04 375.92C173.638 376.332 173.141 376.654 172.549 376.886C171.957 377.114 171.292 377.227 170.553 377.227ZM190.972 368.534L189.467 368.96C189.372 368.709 189.232 368.465 189.048 368.229C188.868 367.987 188.621 367.788 188.309 367.632C187.996 367.476 187.596 367.398 187.109 367.398C186.441 367.398 185.885 367.552 185.44 367.859C184.999 368.162 184.779 368.548 184.779 369.017C184.779 369.434 184.931 369.763 185.234 370.004C185.537 370.246 186.01 370.447 186.654 370.608L188.273 371.006C189.249 371.242 189.976 371.605 190.454 372.092C190.932 372.575 191.171 373.198 191.171 373.96C191.171 374.585 190.991 375.144 190.631 375.636C190.276 376.129 189.779 376.517 189.14 376.801C188.501 377.085 187.757 377.227 186.91 377.227C185.797 377.227 184.876 376.986 184.147 376.503C183.418 376.02 182.956 375.314 182.762 374.386L184.353 373.989C184.504 374.576 184.791 375.016 185.212 375.31C185.638 375.603 186.195 375.75 186.881 375.75C187.663 375.75 188.283 375.584 188.742 375.253C189.206 374.917 189.438 374.514 189.438 374.045C189.438 373.667 189.306 373.349 189.04 373.094C188.775 372.833 188.368 372.639 187.819 372.511L186.001 372.085C185.002 371.848 184.268 371.482 183.799 370.984C183.335 370.482 183.103 369.855 183.103 369.102C183.103 368.487 183.276 367.942 183.621 367.469C183.972 366.995 184.448 366.624 185.049 366.354C185.655 366.084 186.342 365.949 187.109 365.949C188.188 365.949 189.036 366.186 189.651 366.659C190.272 367.133 190.712 367.758 190.972 368.534ZM200.569 372.54V366.091H202.245V377H200.569V375.153H200.456C200.2 375.707 199.802 376.179 199.262 376.567C198.723 376.95 198.041 377.142 197.217 377.142C196.535 377.142 195.929 376.993 195.399 376.695C194.868 376.392 194.452 375.937 194.149 375.331C193.846 374.72 193.694 373.951 193.694 373.023V366.091H195.37V372.909C195.37 373.705 195.593 374.339 196.038 374.812C196.488 375.286 197.061 375.523 197.757 375.523C198.173 375.523 198.597 375.416 199.028 375.203C199.464 374.99 199.828 374.663 200.122 374.223C200.42 373.783 200.569 373.222 200.569 372.54ZM205.543 377V362.455H207.219V367.824H207.361C207.484 367.634 207.654 367.393 207.872 367.099C208.095 366.801 208.412 366.536 208.824 366.304C209.241 366.067 209.804 365.949 210.514 365.949C211.433 365.949 212.242 366.179 212.943 366.638C213.644 367.097 214.191 367.748 214.584 368.591C214.977 369.434 215.173 370.428 215.173 371.574C215.173 372.729 214.977 373.731 214.584 374.578C214.191 375.421 213.646 376.074 212.95 376.538C212.254 376.998 211.452 377.227 210.543 377.227C209.842 377.227 209.281 377.111 208.859 376.879C208.438 376.643 208.114 376.375 207.886 376.077C207.659 375.774 207.484 375.523 207.361 375.324H207.162V377H205.543ZM207.19 371.545C207.19 372.369 207.311 373.096 207.553 373.726C207.794 374.351 208.147 374.841 208.611 375.196C209.075 375.546 209.643 375.722 210.315 375.722C211.016 375.722 211.601 375.537 212.07 375.168C212.543 374.794 212.898 374.292 213.135 373.662C213.376 373.027 213.497 372.322 213.497 371.545C213.497 370.778 213.379 370.087 213.142 369.472C212.91 368.851 212.557 368.361 212.084 368.001C211.615 367.637 211.026 367.455 210.315 367.455C209.634 367.455 209.061 367.627 208.597 367.973C208.133 368.314 207.782 368.792 207.545 369.408C207.309 370.018 207.19 370.731 207.19 371.545ZM223.987 369.983V371.545H217.624V369.983H223.987ZM226.936 381.091V366.091H228.556V367.824H228.755C228.878 367.634 229.048 367.393 229.266 367.099C229.489 366.801 229.806 366.536 230.218 366.304C230.634 366.067 231.198 365.949 231.908 365.949C232.827 365.949 233.636 366.179 234.337 366.638C235.038 367.097 235.585 367.748 235.978 368.591C236.371 369.434 236.567 370.428 236.567 371.574C236.567 372.729 236.371 373.731 235.978 374.578C235.585 375.421 235.04 376.074 234.344 376.538C233.648 376.998 232.846 377.227 231.936 377.227C231.236 377.227 230.675 377.111 230.253 376.879C229.832 376.643 229.507 376.375 229.28 376.077C229.053 375.774 228.878 375.523 228.755 375.324H228.613V381.091H226.936ZM228.584 371.545C228.584 372.369 228.705 373.096 228.946 373.726C229.188 374.351 229.541 374.841 230.005 375.196C230.469 375.546 231.037 375.722 231.709 375.722C232.41 375.722 232.995 375.537 233.463 375.168C233.937 374.794 234.292 374.292 234.529 373.662C234.77 373.027 234.891 372.322 234.891 371.545C234.891 370.778 234.773 370.087 234.536 369.472C234.304 368.851 233.951 368.361 233.478 368.001C233.009 367.637 232.419 367.455 231.709 367.455C231.027 367.455 230.454 367.627 229.99 367.973C229.526 368.314 229.176 368.792 228.939 369.408C228.703 370.018 228.584 370.731 228.584 371.545ZM242.334 377.256C241.643 377.256 241.016 377.125 240.452 376.865C239.889 376.6 239.441 376.219 239.11 375.722C238.778 375.22 238.613 374.614 238.613 373.903C238.613 373.278 238.736 372.772 238.982 372.384C239.228 371.991 239.557 371.683 239.969 371.46C240.381 371.238 240.836 371.072 241.333 370.963C241.835 370.849 242.339 370.759 242.846 370.693C243.508 370.608 244.046 370.544 244.458 370.501C244.874 370.454 245.177 370.376 245.367 370.267C245.561 370.158 245.658 369.969 245.658 369.699V369.642C245.658 368.941 245.466 368.397 245.083 368.009C244.704 367.62 244.129 367.426 243.357 367.426C242.557 367.426 241.929 367.601 241.475 367.952C241.02 368.302 240.701 368.676 240.516 369.074L238.925 368.506C239.209 367.843 239.588 367.327 240.061 366.957C240.54 366.583 241.06 366.323 241.624 366.176C242.192 366.025 242.751 365.949 243.3 365.949C243.65 365.949 244.053 365.991 244.507 366.077C244.967 366.157 245.409 366.325 245.836 366.581C246.266 366.837 246.624 367.223 246.908 367.739C247.192 368.255 247.334 368.946 247.334 369.812V377H245.658V375.523H245.573C245.459 375.759 245.27 376.013 245.005 376.283C244.739 376.553 244.387 376.782 243.946 376.972C243.506 377.161 242.969 377.256 242.334 377.256ZM242.59 375.75C243.253 375.75 243.811 375.62 244.266 375.359C244.725 375.099 245.071 374.763 245.303 374.351C245.54 373.939 245.658 373.506 245.658 373.051V371.517C245.587 371.602 245.431 371.68 245.189 371.751C244.953 371.818 244.678 371.877 244.365 371.929C244.058 371.976 243.757 372.019 243.463 372.057C243.175 372.09 242.94 372.118 242.76 372.142C242.325 372.199 241.917 372.291 241.539 372.419C241.165 372.542 240.862 372.729 240.63 372.98C240.402 373.226 240.289 373.562 240.289 373.989C240.289 374.571 240.504 375.011 240.935 375.31C241.371 375.603 241.922 375.75 242.59 375.75ZM255.138 366.091V367.511H249.484V366.091H255.138ZM251.132 363.477H252.808V373.875C252.808 374.348 252.877 374.704 253.014 374.94C253.156 375.172 253.336 375.329 253.554 375.409C253.777 375.485 254.011 375.523 254.257 375.523C254.442 375.523 254.593 375.513 254.712 375.494C254.83 375.471 254.925 375.452 254.996 375.438L255.337 376.943C255.223 376.986 255.064 377.028 254.861 377.071C254.657 377.118 254.399 377.142 254.087 377.142C253.613 377.142 253.149 377.04 252.695 376.837C252.245 376.633 251.871 376.323 251.572 375.906C251.279 375.49 251.132 374.964 251.132 374.33V363.477ZM259.57 370.438V377H257.893V362.455H259.57V367.795H259.712C259.967 367.232 260.351 366.785 260.862 366.453C261.378 366.117 262.065 365.949 262.922 365.949C263.665 365.949 264.316 366.098 264.875 366.396C265.434 366.69 265.867 367.142 266.175 367.753C266.487 368.359 266.643 369.131 266.643 370.068V377H264.967V370.182C264.967 369.315 264.742 368.645 264.293 368.172C263.848 367.694 263.23 367.455 262.439 367.455C261.89 367.455 261.397 367.571 260.962 367.803C260.531 368.035 260.19 368.373 259.939 368.818C259.693 369.263 259.57 369.803 259.57 370.438ZM284.255 366.091L280.221 377H278.517L274.483 366.091H276.301L279.312 374.784H279.426L282.437 366.091H284.255ZM290.651 377.227C289.6 377.227 288.693 376.995 287.931 376.531C287.173 376.062 286.588 375.409 286.176 374.571C285.769 373.728 285.566 372.748 285.566 371.631C285.566 370.513 285.769 369.528 286.176 368.676C286.588 367.819 287.161 367.152 287.895 366.673C288.634 366.19 289.496 365.949 290.48 365.949C291.049 365.949 291.61 366.044 292.164 366.233C292.718 366.422 293.222 366.73 293.676 367.156C294.131 367.578 294.493 368.136 294.763 368.832C295.033 369.528 295.168 370.385 295.168 371.403V372.114H286.759V370.665H293.463C293.463 370.049 293.34 369.5 293.094 369.017C292.853 368.534 292.507 368.153 292.057 367.874C291.612 367.594 291.087 367.455 290.48 367.455C289.813 367.455 289.235 367.62 288.748 367.952C288.265 368.278 287.893 368.705 287.632 369.23C287.372 369.756 287.242 370.319 287.242 370.92V371.886C287.242 372.71 287.384 373.409 287.668 373.982C287.957 374.55 288.357 374.983 288.868 375.281C289.38 375.575 289.974 375.722 290.651 375.722C291.091 375.722 291.489 375.66 291.844 375.537C292.204 375.409 292.514 375.22 292.775 374.969C293.035 374.713 293.236 374.396 293.378 374.017L294.998 374.472C294.827 375.021 294.541 375.504 294.138 375.92C293.736 376.332 293.239 376.654 292.647 376.886C292.055 377.114 291.39 377.227 290.651 377.227ZM297.718 377V366.091H299.337V367.739H299.451C299.65 367.199 300.009 366.761 300.53 366.425C301.051 366.089 301.638 365.92 302.292 365.92C302.415 365.92 302.569 365.923 302.753 365.928C302.938 365.932 303.078 365.939 303.172 365.949V367.653C303.115 367.639 302.985 367.618 302.782 367.589C302.583 367.556 302.372 367.54 302.15 367.54C301.619 367.54 301.146 367.651 300.729 367.874C300.317 368.091 299.99 368.394 299.749 368.783C299.512 369.166 299.394 369.604 299.394 370.097V377H297.718ZM310.587 366.091V367.511H304.934V366.091H310.587ZM306.581 363.477H308.257V373.875C308.257 374.348 308.326 374.704 308.463 374.94C308.605 375.172 308.785 375.329 309.003 375.409C309.226 375.485 309.46 375.523 309.706 375.523C309.891 375.523 310.042 375.513 310.161 375.494C310.279 375.471 310.374 375.452 310.445 375.438L310.786 376.943C310.672 376.986 310.514 377.028 310.31 377.071C310.106 377.118 309.848 377.142 309.536 377.142C309.062 377.142 308.598 377.04 308.144 376.837C307.694 376.633 307.32 376.323 307.022 375.906C306.728 375.49 306.581 374.964 306.581 374.33V363.477ZM317.565 377.227C316.514 377.227 315.607 376.995 314.845 376.531C314.087 376.062 313.502 375.409 313.091 374.571C312.683 373.728 312.48 372.748 312.48 371.631C312.48 370.513 312.683 369.528 313.091 368.676C313.502 367.819 314.075 367.152 314.809 366.673C315.548 366.19 316.41 365.949 317.395 365.949C317.963 365.949 318.524 366.044 319.078 366.233C319.632 366.422 320.136 366.73 320.591 367.156C321.045 367.578 321.407 368.136 321.677 368.832C321.947 369.528 322.082 370.385 322.082 371.403V372.114H313.673V370.665H320.377C320.377 370.049 320.254 369.5 320.008 369.017C319.767 368.534 319.421 368.153 318.971 367.874C318.526 367.594 318.001 367.455 317.395 367.455C316.727 367.455 316.149 367.62 315.662 367.952C315.179 368.278 314.807 368.705 314.547 369.23C314.286 369.756 314.156 370.319 314.156 370.92V371.886C314.156 372.71 314.298 373.409 314.582 373.982C314.871 374.55 315.271 374.983 315.782 375.281C316.294 375.575 316.888 375.722 317.565 375.722C318.005 375.722 318.403 375.66 318.758 375.537C319.118 375.409 319.428 375.22 319.689 374.969C319.949 374.713 320.15 374.396 320.292 374.017L321.912 374.472C321.741 375.021 321.455 375.504 321.052 375.92C320.65 376.332 320.153 376.654 319.561 376.886C318.969 377.114 318.304 377.227 317.565 377.227ZM325.589 366.091L328.202 370.551L330.816 366.091H332.748L329.225 371.545L332.748 377H330.816L328.202 372.767L325.589 377H323.657L327.123 371.545L323.657 366.091H325.589Z" fill="black"/>
<path d="M139.57 403.455V418H137.893V403.455H139.57ZM142.64 418V407.091H144.316V418H142.64ZM143.492 405.273C143.165 405.273 142.883 405.161 142.647 404.939C142.415 404.716 142.299 404.449 142.299 404.136C142.299 403.824 142.415 403.556 142.647 403.334C142.883 403.111 143.165 403 143.492 403C143.819 403 144.098 403.111 144.33 403.334C144.567 403.556 144.685 403.824 144.685 404.136C144.685 404.449 144.567 404.716 144.33 404.939C144.098 405.161 143.819 405.273 143.492 405.273ZM151.789 422.318C150.979 422.318 150.283 422.214 149.701 422.006C149.119 421.802 148.633 421.532 148.245 421.196C147.862 420.865 147.556 420.509 147.329 420.131L148.664 419.193C148.816 419.392 149.007 419.619 149.239 419.875C149.471 420.135 149.789 420.36 150.191 420.55C150.598 420.744 151.131 420.841 151.789 420.841C152.67 420.841 153.397 420.628 153.969 420.202C154.542 419.776 154.829 419.108 154.829 418.199V415.983H154.687C154.564 416.182 154.388 416.428 154.161 416.722C153.939 417.01 153.617 417.268 153.195 417.496C152.779 417.718 152.215 417.83 151.505 417.83C150.624 417.83 149.834 417.621 149.133 417.205C148.437 416.788 147.885 416.182 147.478 415.386C147.076 414.591 146.874 413.625 146.874 412.489C146.874 411.371 147.071 410.398 147.464 409.57C147.857 408.736 148.404 408.092 149.104 407.638C149.805 407.179 150.615 406.949 151.533 406.949C152.244 406.949 152.807 407.067 153.224 407.304C153.645 407.536 153.967 407.801 154.19 408.099C154.417 408.393 154.592 408.634 154.715 408.824H154.886V407.091H156.505V418.312C156.505 419.25 156.292 420.012 155.866 420.599C155.444 421.191 154.876 421.625 154.161 421.899C153.451 422.179 152.66 422.318 151.789 422.318ZM151.732 416.324C152.405 416.324 152.973 416.17 153.437 415.862C153.901 415.554 154.254 415.112 154.495 414.534C154.737 413.956 154.857 413.265 154.857 412.46C154.857 411.674 154.739 410.981 154.502 410.379C154.265 409.778 153.915 409.307 153.451 408.966C152.987 408.625 152.414 408.455 151.732 408.455C151.022 408.455 150.43 408.634 149.957 408.994C149.488 409.354 149.135 409.837 148.898 410.443C148.666 411.049 148.55 411.722 148.55 412.46C148.55 413.218 148.669 413.888 148.906 414.47C149.147 415.048 149.502 415.502 149.971 415.834C150.444 416.161 151.031 416.324 151.732 416.324ZM161.249 411.438V418H159.573V403.455H161.249V408.795H161.391C161.647 408.232 162.031 407.785 162.542 407.453C163.058 407.117 163.745 406.949 164.602 406.949C165.345 406.949 165.996 407.098 166.555 407.396C167.113 407.69 167.547 408.142 167.854 408.753C168.167 409.359 168.323 410.131 168.323 411.068V418H166.647V411.182C166.647 410.315 166.422 409.645 165.972 409.172C165.527 408.694 164.909 408.455 164.119 408.455C163.569 408.455 163.077 408.571 162.641 408.803C162.21 409.035 161.87 409.373 161.619 409.818C161.372 410.263 161.249 410.803 161.249 411.438ZM176.134 407.091V408.511H170.48V407.091H176.134ZM172.128 404.477H173.804V414.875C173.804 415.348 173.873 415.704 174.01 415.94C174.152 416.172 174.332 416.329 174.55 416.409C174.773 416.485 175.007 416.523 175.253 416.523C175.438 416.523 175.589 416.513 175.708 416.494C175.826 416.471 175.921 416.452 175.992 416.438L176.333 417.943C176.219 417.986 176.06 418.028 175.857 418.071C175.653 418.118 175.395 418.142 175.083 418.142C174.609 418.142 174.145 418.04 173.691 417.837C173.241 417.633 172.867 417.323 172.569 416.906C172.275 416.49 172.128 415.964 172.128 415.33V404.477ZM192.007 409.534L190.502 409.96C190.407 409.709 190.267 409.465 190.083 409.229C189.903 408.987 189.657 408.788 189.344 408.632C189.032 408.476 188.632 408.398 188.144 408.398C187.476 408.398 186.92 408.552 186.475 408.859C186.034 409.162 185.814 409.548 185.814 410.017C185.814 410.434 185.966 410.763 186.269 411.004C186.572 411.246 187.045 411.447 187.689 411.608L189.309 412.006C190.284 412.242 191.011 412.605 191.489 413.092C191.967 413.575 192.206 414.198 192.206 414.96C192.206 415.585 192.026 416.144 191.667 416.636C191.311 417.129 190.814 417.517 190.175 417.801C189.536 418.085 188.792 418.227 187.945 418.227C186.832 418.227 185.911 417.986 185.182 417.503C184.453 417.02 183.991 416.314 183.797 415.386L185.388 414.989C185.54 415.576 185.826 416.016 186.248 416.31C186.674 416.603 187.23 416.75 187.917 416.75C188.698 416.75 189.318 416.584 189.777 416.253C190.241 415.917 190.473 415.514 190.473 415.045C190.473 414.667 190.341 414.349 190.076 414.094C189.81 413.833 189.403 413.639 188.854 413.511L187.036 413.085C186.037 412.848 185.303 412.482 184.834 411.984C184.37 411.482 184.138 410.855 184.138 410.102C184.138 409.487 184.311 408.942 184.657 408.469C185.007 407.995 185.483 407.624 186.084 407.354C186.69 407.084 187.377 406.949 188.144 406.949C189.223 406.949 190.071 407.186 190.686 407.659C191.307 408.133 191.747 408.758 192.007 409.534ZM201.604 413.54V407.091H203.281V418H201.604V416.153H201.491C201.235 416.707 200.837 417.179 200.298 417.567C199.758 417.95 199.076 418.142 198.252 418.142C197.57 418.142 196.964 417.993 196.434 417.695C195.904 417.392 195.487 416.937 195.184 416.331C194.881 415.72 194.729 414.951 194.729 414.023V407.091H196.406V413.909C196.406 414.705 196.628 415.339 197.073 415.812C197.523 416.286 198.096 416.523 198.792 416.523C199.209 416.523 199.632 416.416 200.063 416.203C200.499 415.99 200.863 415.663 201.157 415.223C201.455 414.783 201.604 414.222 201.604 413.54ZM206.578 418V403.455H208.254V408.824H208.396C208.519 408.634 208.69 408.393 208.907 408.099C209.13 407.801 209.447 407.536 209.859 407.304C210.276 407.067 210.839 406.949 211.549 406.949C212.468 406.949 213.278 407.179 213.978 407.638C214.679 408.097 215.226 408.748 215.619 409.591C216.012 410.434 216.208 411.428 216.208 412.574C216.208 413.729 216.012 414.731 215.619 415.578C215.226 416.421 214.681 417.074 213.985 417.538C213.289 417.998 212.487 418.227 211.578 418.227C210.877 418.227 210.316 418.111 209.895 417.879C209.473 417.643 209.149 417.375 208.922 417.077C208.694 416.774 208.519 416.523 208.396 416.324H208.197V418H206.578ZM208.225 412.545C208.225 413.369 208.346 414.096 208.588 414.726C208.829 415.351 209.182 415.841 209.646 416.196C210.11 416.546 210.678 416.722 211.35 416.722C212.051 416.722 212.636 416.537 213.105 416.168C213.578 415.794 213.933 415.292 214.17 414.662C214.412 414.027 214.532 413.322 214.532 412.545C214.532 411.778 214.414 411.087 214.177 410.472C213.945 409.851 213.592 409.361 213.119 409.001C212.65 408.637 212.061 408.455 211.35 408.455C210.669 408.455 210.096 408.627 209.632 408.973C209.168 409.314 208.817 409.792 208.581 410.408C208.344 411.018 208.225 411.731 208.225 412.545ZM225.022 410.983V412.545H218.659V410.983H225.022ZM227.972 422.091V407.091H229.591V408.824H229.79C229.913 408.634 230.083 408.393 230.301 408.099C230.524 407.801 230.841 407.536 231.253 407.304C231.67 407.067 232.233 406.949 232.943 406.949C233.862 406.949 234.671 407.179 235.372 407.638C236.073 408.097 236.62 408.748 237.013 409.591C237.406 410.434 237.602 411.428 237.602 412.574C237.602 413.729 237.406 414.731 237.013 415.578C236.62 416.421 236.075 417.074 235.379 417.538C234.683 417.998 233.881 418.227 232.972 418.227C232.271 418.227 231.71 418.111 231.288 417.879C230.867 417.643 230.543 417.375 230.315 417.077C230.088 416.774 229.913 416.523 229.79 416.324H229.648V422.091H227.972ZM229.619 412.545C229.619 413.369 229.74 414.096 229.982 414.726C230.223 415.351 230.576 415.841 231.04 416.196C231.504 416.546 232.072 416.722 232.744 416.722C233.445 416.722 234.03 416.537 234.499 416.168C234.972 415.794 235.327 415.292 235.564 414.662C235.805 414.027 235.926 413.322 235.926 412.545C235.926 411.778 235.808 411.087 235.571 410.472C235.339 409.851 234.986 409.361 234.513 409.001C234.044 408.637 233.455 408.455 232.744 408.455C232.063 408.455 231.49 408.627 231.026 408.973C230.562 409.314 230.211 409.792 229.974 410.408C229.738 411.018 229.619 411.731 229.619 412.545ZM243.369 418.256C242.678 418.256 242.051 418.125 241.487 417.865C240.924 417.6 240.476 417.219 240.145 416.722C239.813 416.22 239.648 415.614 239.648 414.903C239.648 414.278 239.771 413.772 240.017 413.384C240.263 412.991 240.592 412.683 241.004 412.46C241.416 412.238 241.871 412.072 242.368 411.963C242.87 411.849 243.374 411.759 243.881 411.693C244.544 411.608 245.081 411.544 245.493 411.501C245.91 411.454 246.213 411.376 246.402 411.267C246.596 411.158 246.693 410.969 246.693 410.699V410.642C246.693 409.941 246.501 409.397 246.118 409.009C245.739 408.62 245.164 408.426 244.392 408.426C243.592 408.426 242.964 408.601 242.51 408.952C242.055 409.302 241.736 409.676 241.551 410.074L239.96 409.506C240.244 408.843 240.623 408.327 241.097 407.957C241.575 407.583 242.096 407.323 242.659 407.176C243.227 407.025 243.786 406.949 244.335 406.949C244.686 406.949 245.088 406.991 245.543 407.077C246.002 407.157 246.445 407.325 246.871 407.581C247.302 407.837 247.659 408.223 247.943 408.739C248.227 409.255 248.369 409.946 248.369 410.812V418H246.693V416.523H246.608C246.494 416.759 246.305 417.013 246.04 417.283C245.775 417.553 245.422 417.782 244.982 417.972C244.541 418.161 244.004 418.256 243.369 418.256ZM243.625 416.75C244.288 416.75 244.847 416.62 245.301 416.359C245.76 416.099 246.106 415.763 246.338 415.351C246.575 414.939 246.693 414.506 246.693 414.051V412.517C246.622 412.602 246.466 412.68 246.224 412.751C245.988 412.818 245.713 412.877 245.401 412.929C245.093 412.976 244.792 413.019 244.499 413.057C244.21 413.09 243.975 413.118 243.795 413.142C243.36 413.199 242.953 413.291 242.574 413.419C242.2 413.542 241.897 413.729 241.665 413.98C241.438 414.226 241.324 414.562 241.324 414.989C241.324 415.571 241.539 416.011 241.97 416.31C242.406 416.603 242.957 416.75 243.625 416.75ZM256.173 407.091V408.511H250.52V407.091H256.173ZM252.167 404.477H253.843V414.875C253.843 415.348 253.912 415.704 254.049 415.94C254.191 416.172 254.371 416.329 254.589 416.409C254.812 416.485 255.046 416.523 255.292 416.523C255.477 416.523 255.628 416.513 255.747 416.494C255.865 416.471 255.96 416.452 256.031 416.438L256.372 417.943C256.258 417.986 256.1 418.028 255.896 418.071C255.692 418.118 255.434 418.142 255.122 418.142C254.648 418.142 254.184 418.04 253.73 417.837C253.28 417.633 252.906 417.323 252.608 416.906C252.314 416.49 252.167 415.964 252.167 415.33V404.477ZM260.605 411.438V418H258.929V403.455H260.605V408.795H260.747C261.002 408.232 261.386 407.785 261.897 407.453C262.413 407.117 263.1 406.949 263.957 406.949C264.7 406.949 265.351 407.098 265.91 407.396C266.469 407.69 266.902 408.142 267.21 408.753C267.522 409.359 267.679 410.131 267.679 411.068V418H266.002V411.182C266.002 410.315 265.778 409.645 265.328 409.172C264.883 408.694 264.265 408.455 263.474 408.455C262.925 408.455 262.432 408.571 261.997 408.803C261.566 409.035 261.225 409.373 260.974 409.818C260.728 410.263 260.605 410.803 260.605 411.438ZM285.29 407.091L281.256 418H279.552L275.518 407.091H277.336L280.347 415.784H280.461L283.472 407.091H285.29ZM291.686 418.227C290.635 418.227 289.728 417.995 288.966 417.531C288.208 417.062 287.624 416.409 287.212 415.571C286.804 414.728 286.601 413.748 286.601 412.631C286.601 411.513 286.804 410.528 287.212 409.676C287.624 408.819 288.196 408.152 288.93 407.673C289.669 407.19 290.531 406.949 291.516 406.949C292.084 406.949 292.645 407.044 293.199 407.233C293.753 407.422 294.257 407.73 294.712 408.156C295.166 408.578 295.528 409.136 295.798 409.832C296.068 410.528 296.203 411.385 296.203 412.403V413.114H287.794V411.665H294.499C294.499 411.049 294.375 410.5 294.129 410.017C293.888 409.534 293.542 409.153 293.092 408.874C292.647 408.594 292.122 408.455 291.516 408.455C290.848 408.455 290.27 408.62 289.783 408.952C289.3 409.278 288.928 409.705 288.668 410.23C288.407 410.756 288.277 411.319 288.277 411.92V412.886C288.277 413.71 288.419 414.409 288.703 414.982C288.992 415.55 289.392 415.983 289.903 416.281C290.415 416.575 291.009 416.722 291.686 416.722C292.126 416.722 292.524 416.66 292.879 416.537C293.239 416.409 293.549 416.22 293.81 415.969C294.07 415.713 294.271 415.396 294.413 415.017L296.033 415.472C295.862 416.021 295.576 416.504 295.173 416.92C294.771 417.332 294.274 417.654 293.682 417.886C293.09 418.114 292.425 418.227 291.686 418.227ZM298.753 418V407.091H300.372V408.739H300.486C300.685 408.199 301.045 407.761 301.565 407.425C302.086 407.089 302.673 406.92 303.327 406.92C303.45 406.92 303.604 406.923 303.788 406.928C303.973 406.932 304.113 406.939 304.207 406.949V408.653C304.151 408.639 304.02 408.618 303.817 408.589C303.618 408.556 303.407 408.54 303.185 408.54C302.654 408.54 302.181 408.651 301.764 408.874C301.352 409.091 301.026 409.394 300.784 409.783C300.547 410.166 300.429 410.604 300.429 411.097V418H298.753ZM311.622 407.091V408.511H305.969V407.091H311.622ZM307.616 404.477H309.293V414.875C309.293 415.348 309.361 415.704 309.499 415.94C309.641 416.172 309.821 416.329 310.038 416.409C310.261 416.485 310.495 416.523 310.741 416.523C310.926 416.523 311.078 416.513 311.196 416.494C311.314 416.471 311.409 416.452 311.48 416.438L311.821 417.943C311.707 417.986 311.549 418.028 311.345 418.071C311.142 418.118 310.884 418.142 310.571 418.142C310.098 418.142 309.634 418.04 309.179 417.837C308.729 417.633 308.355 417.323 308.057 416.906C307.763 416.49 307.616 415.964 307.616 415.33V404.477ZM318.6 418.227C317.549 418.227 316.642 417.995 315.88 417.531C315.122 417.062 314.538 416.409 314.126 415.571C313.719 414.728 313.515 413.748 313.515 412.631C313.515 411.513 313.719 410.528 314.126 409.676C314.538 408.819 315.111 408.152 315.844 407.673C316.583 407.19 317.445 406.949 318.43 406.949C318.998 406.949 319.559 407.044 320.113 407.233C320.667 407.422 321.171 407.73 321.626 408.156C322.08 408.578 322.442 409.136 322.712 409.832C322.982 410.528 323.117 411.385 323.117 412.403V413.114H314.708V411.665H321.413C321.413 411.049 321.29 410.5 321.043 410.017C320.802 409.534 320.456 409.153 320.006 408.874C319.561 408.594 319.036 408.455 318.43 408.455C317.762 408.455 317.184 408.62 316.697 408.952C316.214 409.278 315.842 409.705 315.582 410.23C315.321 410.756 315.191 411.319 315.191 411.92V412.886C315.191 413.71 315.333 414.409 315.617 414.982C315.906 415.55 316.306 415.983 316.817 416.281C317.329 416.575 317.923 416.722 318.6 416.722C319.04 416.722 319.438 416.66 319.793 416.537C320.153 416.409 320.463 416.22 320.724 415.969C320.984 415.713 321.185 415.396 321.327 415.017L322.947 415.472C322.776 416.021 322.49 416.504 322.087 416.92C321.685 417.332 321.188 417.654 320.596 417.886C320.004 418.114 319.339 418.227 318.6 418.227ZM326.624 407.091L329.238 411.551L331.851 407.091H333.783L330.26 412.545L333.783 418H331.851L329.238 413.767L326.624 418H324.692L328.158 412.545L324.692 407.091H326.624Z" fill="black"/>
<circle cx="818.5" cy="311.5" r="15" fill="#2FA93D" stroke="black" stroke-width="5"/>
<circle cx="56.5" cy="227.5" r="15" fill="#D9362B" stroke="black" stroke-width="5"/>
<circle cx="299.5" cy="57.5" r="15" fill="#D9362B" stroke="black" stroke-width="5"/>
</svg>
