<svg width="1400" height="241" viewBox="0 0 1400 241" fill="none" xmlns="http://www.w3.org/2000/svg">
<path d="M775.357 195.022C776.074 196.838 776.565 198.704 776.813 200.611L775.325 200.804C775.441 201.694 775.5 202.593 775.5 203.5C775.5 204.407 775.441 205.306 775.325 206.196L776.813 206.389C776.565 208.296 776.074 210.162 775.357 211.978L773.962 211.428C773.311 213.078 772.459 214.693 771.416 216.264L772.666 217.093C771.63 218.654 770.42 220.163 769.052 221.614L767.961 220.585C766.728 221.891 765.356 223.154 763.854 224.364L764.795 225.532C763.335 226.708 761.761 227.833 760.083 228.9L759.278 227.635C757.735 228.616 756.098 229.55 754.374 230.431L755.057 231.767C753.378 232.625 751.622 233.433 749.796 234.186L749.224 232.8C747.51 233.507 745.731 234.165 743.893 234.772L744.364 236.196C742.563 236.79 740.709 237.335 738.806 237.827L738.431 236.374C736.622 236.842 734.767 237.261 732.872 237.63L733.158 239.102C731.29 239.465 729.383 239.779 727.443 240.041L727.242 238.555C725.38 238.806 723.487 239.01 721.565 239.162L721.684 240.658C719.78 240.809 717.851 240.911 715.898 240.962L715.859 239.463C714.911 239.487 713.958 239.5 713 239.5C712.042 239.5 711.089 239.487 710.141 239.463L710.102 240.962C708.149 240.911 706.22 240.809 704.316 240.658L704.435 239.162C702.513 239.01 700.62 238.806 698.758 238.555L698.557 240.041C696.617 239.779 694.71 239.465 692.842 239.102L693.128 237.63C691.233 237.261 689.378 236.842 687.569 236.374L687.194 237.827C685.291 237.335 683.437 236.79 681.636 236.196L682.107 234.772C680.269 234.165 678.49 233.507 676.776 232.8L676.204 234.186C674.378 233.433 672.622 232.625 670.943 231.767L671.626 230.431C669.902 229.55 668.265 228.616 666.722 227.635L665.917 228.9C664.239 227.833 662.665 226.708 661.205 225.532L662.146 224.364C660.644 223.154 659.272 221.891 658.039 220.585L656.948 221.614C655.58 220.163 654.37 218.654 653.334 217.093L654.584 216.264C653.541 214.693 652.689 213.078 652.038 211.428L650.642 211.978C649.926 210.162 649.435 208.296 649.187 206.389L650.675 206.196C650.559 205.306 650.5 204.407 650.5 203.5C650.5 202.593 650.559 201.694 650.675 200.804L649.187 200.611C649.435 198.704 649.926 196.838 650.643 195.022L652.038 195.572C652.689 193.922 653.541 192.307 654.584 190.736L653.334 189.907C654.37 188.346 655.58 186.837 656.948 185.386L658.039 186.415C659.272 185.109 660.644 183.846 662.146 182.636L661.205 181.468C662.665 180.292 664.239 179.167 665.917 178.1L666.722 179.365C668.265 178.384 669.902 177.45 671.626 176.569L670.943 175.233C672.622 174.375 674.378 173.567 676.204 172.814L676.776 174.2C678.49 173.493 680.269 172.835 682.107 172.228L681.636 170.804C683.437 170.21 685.291 169.665 687.194 169.173L687.569 170.626C689.378 170.158 691.233 169.739 693.128 169.37L692.842 167.898C694.71 167.535 696.617 167.221 698.557 166.959L698.758 168.445C700.62 168.194 702.513 167.99 704.435 167.838L704.316 166.342C706.22 166.191 708.15 166.089 710.102 166.038L710.141 167.537C711.089 167.513 712.042 167.5 713 167.5C713.958 167.5 714.911 167.513 715.859 167.537L715.898 166.038C717.851 166.089 719.78 166.191 721.684 166.342L721.565 167.838C723.487 167.99 725.38 168.194 727.242 168.445L727.443 166.959C729.383 167.221 731.29 167.535 733.158 167.898L732.872 169.37C734.767 169.739 736.622 170.158 738.431 170.626L738.806 169.173C740.709 169.665 742.563 170.21 744.364 170.804L743.893 172.228C745.731 172.835 747.51 173.493 749.224 174.2L749.796 172.814C751.622 173.567 753.378 174.375 755.057 175.233L754.374 176.569C756.098 177.45 757.735 178.384 759.278 179.365L760.083 178.1C761.761 179.167 763.335 180.292 764.795 181.468L763.854 182.636C765.356 183.846 766.728 185.109 767.961 186.415L769.052 185.386C770.42 186.837 771.63 188.346 772.666 189.907L771.416 190.737C772.459 192.307 773.311 193.922 773.962 195.572L775.357 195.022Z" fill="#D9362B" fill-opacity="0.25" stroke="#D9362B" stroke-width="3" stroke-dasharray="6 6"/>
<path d="M668.813 204.261C669.509 203.812 669.71 202.883 669.261 202.187L661.944 190.842C661.495 190.145 660.567 189.945 659.871 190.394C659.175 190.843 658.974 191.771 659.423 192.467L665.926 202.552L655.842 209.056C655.145 209.505 654.945 210.433 655.394 211.129C655.843 211.825 656.771 212.026 657.467 211.577L668.813 204.261ZM403.683 147.466L667.683 204.466L668.317 201.534L404.317 144.534L403.683 147.466Z" fill="black"/>
<path d="M751.935 202.943C751.352 203.532 751.355 204.481 751.943 205.065L761.526 214.574C762.115 215.157 763.064 215.153 763.648 214.565C764.231 213.977 764.228 213.027 763.64 212.444L755.121 203.992L763.574 195.474C764.157 194.885 764.153 193.936 763.565 193.352C762.977 192.769 762.027 192.772 761.444 193.36L751.935 202.943ZM753.006 205.5L1007.01 204.512L1006.99 201.512L752.994 202.5L753.006 205.5Z" fill="black"/>
<path d="M1022.76 202.161C1022.29 202.848 1022.47 203.781 1023.16 204.244L1034.35 211.791C1035.04 212.254 1035.97 212.073 1036.44 211.386C1036.9 210.699 1036.72 209.767 1036.03 209.304L1026.08 202.595L1032.79 192.645C1033.25 191.959 1033.07 191.026 1032.39 190.563C1031.7 190.1 1030.77 190.281 1030.3 190.968L1022.76 202.161ZM1024.29 204.472L1317.29 147.472L1316.71 144.528L1023.71 201.528L1024.29 204.472Z" fill="black"/>
<circle cx="403.5" cy="146.5" r="15" fill="#2FA93D" stroke="black" stroke-width="5"/>
<circle cx="685.5" cy="203.5" r="15" fill="#2FA93D" stroke="black" stroke-width="5"/>
<circle cx="735.5" cy="203.5" r="15" fill="#D9362B" stroke="black" stroke-width="5"/>
<circle cx="1006.5" cy="203.5" r="15" fill="#D9362B" stroke="black" stroke-width="5"/>
<circle cx="1316.5" cy="146.5" r="15" fill="#D9362B" stroke="black" stroke-width="5"/>
<path d="M2.25817 152V134.545H4.26953V140.989H4.43999C4.58771 140.761 4.79226 140.472 5.05362 140.119C5.32067 139.761 5.70135 139.443 6.19567 139.165C6.69567 138.881 7.3718 138.739 8.22408 138.739C9.32635 138.739 10.2979 139.014 11.1388 139.565C11.9798 140.116 12.636 140.898 13.1076 141.909C13.5792 142.92 13.815 144.114 13.815 145.489C13.815 146.875 13.5792 148.077 13.1076 149.094C12.636 150.105 11.9826 150.889 11.1474 151.446C10.3121 151.997 9.34908 152.273 8.25817 152.273C7.41726 152.273 6.74396 152.134 6.23828 151.855C5.7326 151.571 5.34339 151.25 5.07067 150.892C4.79794 150.528 4.58771 150.227 4.43999 149.989H4.20135V152H2.25817ZM4.23544 145.455C4.23544 146.443 4.38033 147.315 4.6701 148.071C4.95987 148.821 5.38317 149.409 5.93999 149.835C6.4968 150.256 7.17862 150.466 7.98544 150.466C8.82635 150.466 9.52805 150.244 10.0906 149.801C10.6587 149.352 11.0849 148.75 11.369 147.994C11.6587 147.233 11.8036 146.386 11.8036 145.455C11.8036 144.534 11.6616 143.705 11.3775 142.966C11.0991 142.222 10.6758 141.634 10.1076 141.202C9.5451 140.764 8.83771 140.545 7.98544 140.545C7.16726 140.545 6.47976 140.753 5.92294 141.168C5.36612 141.577 4.94567 142.151 4.66158 142.889C4.37749 143.622 4.23544 144.477 4.23544 145.455ZM16.8917 152V138.909H18.9031V152H16.8917ZM17.9144 136.727C17.5224 136.727 17.1843 136.594 16.9002 136.327C16.6218 136.06 16.4826 135.739 16.4826 135.364C16.4826 134.989 16.6218 134.668 16.9002 134.401C17.1843 134.134 17.5224 134 17.9144 134C18.3065 134 18.6417 134.134 18.9201 134.401C19.2042 134.668 19.3462 134.989 19.3462 135.364C19.3462 135.739 19.2042 136.06 18.9201 136.327C18.6417 136.594 18.3065 136.727 17.9144 136.727ZM27.5302 152.273C26.4393 152.273 25.4762 151.997 24.641 151.446C23.8058 150.889 23.1523 150.105 22.6808 149.094C22.2092 148.077 21.9734 146.875 21.9734 145.489C21.9734 144.114 22.2092 142.92 22.6808 141.909C23.1523 140.898 23.8086 140.116 24.6495 139.565C25.4904 139.014 26.462 138.739 27.5643 138.739C28.4165 138.739 29.0898 138.881 29.5842 139.165C30.0842 139.443 30.4648 139.761 30.7262 140.119C30.9933 140.472 31.2006 140.761 31.3484 140.989H31.5188V134.545H33.5302V152H31.587V149.989H31.3484C31.2006 150.227 30.9904 150.528 30.7177 150.892C30.445 151.25 30.0558 151.571 29.5501 151.855C29.0444 152.134 28.3711 152.273 27.5302 152.273ZM27.8029 150.466C28.6097 150.466 29.2915 150.256 29.8484 149.835C30.4052 149.409 30.8285 148.821 31.1183 148.071C31.408 147.315 31.5529 146.443 31.5529 145.455C31.5529 144.477 31.4109 143.622 31.1268 142.889C30.8427 142.151 30.4222 141.577 29.8654 141.168C29.3086 140.753 28.6211 140.545 27.8029 140.545C26.9506 140.545 26.2404 140.764 25.6722 141.202C25.1097 141.634 24.6864 142.222 24.4023 142.966C24.1239 143.705 23.9847 144.534 23.9847 145.455C23.9847 146.386 24.1268 147.233 24.4109 147.994C24.7006 148.75 25.1268 149.352 25.6893 149.801C26.2575 150.244 26.962 150.466 27.8029 150.466ZM37.4933 152V138.909H39.5046V152H37.4933ZM38.516 136.727C38.1239 136.727 37.7859 136.594 37.5018 136.327C37.2234 136.06 37.0842 135.739 37.0842 135.364C37.0842 134.989 37.2234 134.668 37.5018 134.401C37.7859 134.134 38.1239 134 38.516 134C38.908 134 39.2433 134.134 39.5217 134.401C39.8058 134.668 39.9478 134.989 39.9478 135.364C39.9478 135.739 39.8058 136.06 39.5217 136.327C39.2433 136.594 38.908 136.727 38.516 136.727ZM43.1886 152V138.909H45.1317V140.886H45.2681C45.5067 140.239 45.9386 139.713 46.5636 139.31C47.1886 138.906 47.8931 138.705 48.6772 138.705C48.8249 138.705 49.0096 138.707 49.2312 138.713C49.4528 138.719 49.6204 138.727 49.734 138.739V140.784C49.6658 140.767 49.5096 140.741 49.2653 140.707C49.0266 140.668 48.7738 140.648 48.5067 140.648C47.8704 140.648 47.3022 140.781 46.8022 141.048C46.3079 141.31 45.9158 141.673 45.6261 142.139C45.342 142.599 45.1999 143.125 45.1999 143.716V152H43.1886ZM57.2085 152.273C55.9471 152.273 54.859 151.994 53.9442 151.438C53.0352 150.875 52.3335 150.091 51.8391 149.085C51.3505 148.074 51.1062 146.898 51.1062 145.557C51.1062 144.216 51.3505 143.034 51.8391 142.011C52.3335 140.983 53.021 140.182 53.9016 139.608C54.788 139.028 55.8221 138.739 57.0039 138.739C57.6857 138.739 58.359 138.852 59.0238 139.08C59.6886 139.307 60.2937 139.676 60.8391 140.188C61.3846 140.693 61.8192 141.364 62.1431 142.199C62.467 143.034 62.6289 144.062 62.6289 145.284V146.136H52.538V144.398H60.5835C60.5835 143.659 60.4357 143 60.1403 142.42C59.8505 141.841 59.4357 141.384 58.896 141.048C58.3619 140.713 57.7312 140.545 57.0039 140.545C56.2028 140.545 55.5096 140.744 54.9244 141.142C54.3448 141.534 53.8988 142.045 53.5863 142.676C53.2738 143.307 53.1175 143.983 53.1175 144.705V145.864C53.1175 146.852 53.288 147.69 53.6289 148.378C53.9755 149.06 54.4556 149.58 55.0692 149.938C55.6829 150.29 56.396 150.466 57.2085 150.466C57.7369 150.466 58.2141 150.392 58.6403 150.244C59.0721 150.091 59.4442 149.864 59.7567 149.562C60.0692 149.256 60.3107 148.875 60.4812 148.42L62.4244 148.966C62.2198 149.625 61.8761 150.205 61.3931 150.705C60.9102 151.199 60.3136 151.585 59.6033 151.864C58.8931 152.136 58.0948 152.273 57.2085 152.273ZM71.0067 152.273C69.7795 152.273 68.7227 151.983 67.8363 151.403C66.9499 150.824 66.2681 150.026 65.7908 149.009C65.3136 147.991 65.0749 146.83 65.0749 145.523C65.0749 144.193 65.3192 143.02 65.8079 142.003C66.3022 140.98 66.9897 140.182 67.8704 139.608C68.7567 139.028 69.7908 138.739 70.9727 138.739C71.8931 138.739 72.7227 138.909 73.4613 139.25C74.1999 139.591 74.805 140.068 75.2766 140.682C75.7482 141.295 76.0408 142.011 76.1545 142.83H74.1431C73.9897 142.233 73.6488 141.705 73.1204 141.244C72.5977 140.778 71.8931 140.545 71.0067 140.545C70.2227 140.545 69.5352 140.75 68.9442 141.159C68.359 141.562 67.9016 142.134 67.5721 142.872C67.2482 143.605 67.0863 144.466 67.0863 145.455C67.0863 146.466 67.2454 147.347 67.5636 148.097C67.8874 148.847 68.342 149.429 68.9272 149.844C69.5181 150.259 70.2113 150.466 71.0067 150.466C71.5295 150.466 72.0039 150.375 72.43 150.193C72.8562 150.011 73.217 149.75 73.5124 149.409C73.8079 149.068 74.0181 148.659 74.1431 148.182H76.1545C76.0408 148.955 75.7596 149.651 75.3107 150.27C74.8675 150.884 74.2795 151.372 73.5465 151.736C72.8192 152.094 71.9727 152.273 71.0067 152.273ZM84.788 138.909V140.614H78.0039V138.909H84.788ZM79.9812 135.773H81.9925V148.25C81.9925 148.818 82.0749 149.244 82.2397 149.528C82.4102 149.807 82.6261 149.994 82.8874 150.091C83.1545 150.182 83.4357 150.227 83.7312 150.227C83.9528 150.227 84.1346 150.216 84.2766 150.193C84.4187 150.165 84.5323 150.142 84.6175 150.125L85.0266 151.932C84.8903 151.983 84.6999 152.034 84.4556 152.085C84.2113 152.142 83.9016 152.17 83.5266 152.17C82.9585 152.17 82.4016 152.048 81.8562 151.804C81.3164 151.56 80.8675 151.188 80.5096 150.688C80.1573 150.188 79.9812 149.557 79.9812 148.795V135.773ZM87.8136 152V138.909H89.8249V152H87.8136ZM88.8363 136.727C88.4442 136.727 88.1062 136.594 87.8221 136.327C87.5437 136.06 87.4045 135.739 87.4045 135.364C87.4045 134.989 87.5437 134.668 87.8221 134.401C88.1062 134.134 88.4442 134 88.8363 134C89.2283 134 89.5636 134.134 89.842 134.401C90.1261 134.668 90.2681 134.989 90.2681 135.364C90.2681 135.739 90.1261 136.06 89.842 136.327C89.5636 136.594 89.2283 136.727 88.8363 136.727ZM98.8271 152.273C97.6452 152.273 96.6083 151.991 95.7163 151.429C94.8299 150.866 94.1367 150.08 93.6367 149.068C93.1424 148.057 92.8952 146.875 92.8952 145.523C92.8952 144.159 93.1424 142.969 93.6367 141.952C94.1367 140.935 94.8299 140.145 95.7163 139.582C96.6083 139.02 97.6452 138.739 98.8271 138.739C100.009 138.739 101.043 139.02 101.929 139.582C102.821 140.145 103.515 140.935 104.009 141.952C104.509 142.969 104.759 144.159 104.759 145.523C104.759 146.875 104.509 148.057 104.009 149.068C103.515 150.08 102.821 150.866 101.929 151.429C101.043 151.991 100.009 152.273 98.8271 152.273ZM98.8271 150.466C99.7248 150.466 100.463 150.236 101.043 149.776C101.623 149.315 102.051 148.71 102.33 147.96C102.608 147.21 102.748 146.398 102.748 145.523C102.748 144.648 102.608 143.832 102.33 143.077C102.051 142.321 101.623 141.71 101.043 141.244C100.463 140.778 99.7248 140.545 98.8271 140.545C97.9293 140.545 97.1907 140.778 96.6112 141.244C96.0316 141.71 95.6026 142.321 95.3242 143.077C95.0458 143.832 94.9066 144.648 94.9066 145.523C94.9066 146.398 95.0458 147.21 95.3242 147.96C95.6026 148.71 96.0316 149.315 96.6112 149.776C97.1907 150.236 97.9293 150.466 98.8271 150.466ZM109.841 144.125V152H107.829V138.909H109.772V140.955H109.943C110.25 140.29 110.716 139.756 111.341 139.352C111.966 138.943 112.772 138.739 113.761 138.739C114.647 138.739 115.423 138.92 116.088 139.284C116.752 139.642 117.27 140.188 117.639 140.92C118.008 141.648 118.193 142.568 118.193 143.682V152H116.181V143.818C116.181 142.79 115.914 141.989 115.38 141.415C114.846 140.835 114.113 140.545 113.181 140.545C112.539 140.545 111.966 140.685 111.46 140.963C110.96 141.241 110.565 141.648 110.275 142.182C109.985 142.716 109.841 143.364 109.841 144.125ZM125.721 152.307C124.891 152.307 124.138 152.151 123.462 151.838C122.786 151.52 122.249 151.062 121.851 150.466C121.453 149.864 121.255 149.136 121.255 148.284C121.255 147.534 121.402 146.926 121.698 146.46C121.993 145.989 122.388 145.619 122.882 145.352C123.377 145.085 123.922 144.886 124.519 144.756C125.121 144.619 125.726 144.511 126.334 144.432C127.13 144.33 127.775 144.253 128.269 144.202C128.769 144.145 129.132 144.051 129.36 143.92C129.593 143.79 129.709 143.562 129.709 143.239V143.17C129.709 142.33 129.479 141.676 129.019 141.21C128.564 140.744 127.874 140.511 126.948 140.511C125.988 140.511 125.235 140.722 124.689 141.142C124.144 141.562 123.76 142.011 123.539 142.489L121.63 141.807C121.971 141.011 122.425 140.392 122.993 139.949C123.567 139.5 124.192 139.187 124.868 139.011C125.55 138.83 126.221 138.739 126.88 138.739C127.3 138.739 127.783 138.79 128.328 138.892C128.88 138.989 129.411 139.19 129.922 139.497C130.439 139.804 130.868 140.267 131.209 140.886C131.55 141.506 131.721 142.335 131.721 143.375V152H129.709V150.227H129.607C129.471 150.511 129.243 150.815 128.925 151.139C128.607 151.463 128.184 151.739 127.655 151.966C127.127 152.193 126.482 152.307 125.721 152.307ZM126.027 150.5C126.823 150.5 127.493 150.344 128.039 150.031C128.59 149.719 129.005 149.315 129.283 148.821C129.567 148.327 129.709 147.807 129.709 147.261V145.42C129.624 145.523 129.436 145.616 129.147 145.702C128.863 145.781 128.533 145.852 128.158 145.915C127.789 145.972 127.428 146.023 127.076 146.068C126.729 146.108 126.448 146.142 126.232 146.17C125.709 146.239 125.221 146.349 124.766 146.503C124.317 146.651 123.953 146.875 123.675 147.176C123.402 147.472 123.266 147.875 123.266 148.386C123.266 149.085 123.525 149.614 124.042 149.972C124.564 150.324 125.226 150.5 126.027 150.5ZM137.403 134.545V152H135.392V134.545H137.403ZM158.542 138.909L153.701 152H151.655L146.814 138.909H148.996L152.61 149.341H152.746L156.36 138.909H158.542ZM166.216 152.273C164.955 152.273 163.867 151.994 162.952 151.438C162.043 150.875 161.341 150.091 160.847 149.085C160.358 148.074 160.114 146.898 160.114 145.557C160.114 144.216 160.358 143.034 160.847 142.011C161.341 140.983 162.029 140.182 162.909 139.608C163.796 139.028 164.83 138.739 166.012 138.739C166.694 138.739 167.367 138.852 168.032 139.08C168.696 139.307 169.301 139.676 169.847 140.188C170.392 140.693 170.827 141.364 171.151 142.199C171.475 143.034 171.637 144.062 171.637 145.284V146.136H161.546V144.398H169.591C169.591 143.659 169.444 143 169.148 142.42C168.858 141.841 168.444 141.384 167.904 141.048C167.37 140.713 166.739 140.545 166.012 140.545C165.211 140.545 164.517 140.744 163.932 141.142C163.353 141.534 162.907 142.045 162.594 142.676C162.282 143.307 162.125 143.983 162.125 144.705V145.864C162.125 146.852 162.296 147.69 162.637 148.378C162.983 149.06 163.463 149.58 164.077 149.938C164.691 150.29 165.404 150.466 166.216 150.466C166.745 150.466 167.222 150.392 167.648 150.244C168.08 150.091 168.452 149.864 168.765 149.562C169.077 149.256 169.319 148.875 169.489 148.42L171.432 148.966C171.228 149.625 170.884 150.205 170.401 150.705C169.918 151.199 169.321 151.585 168.611 151.864C167.901 152.136 167.103 152.273 166.216 152.273ZM174.696 152V138.909H176.64V140.886H176.776C177.015 140.239 177.446 139.713 178.071 139.31C178.696 138.906 179.401 138.705 180.185 138.705C180.333 138.705 180.517 138.707 180.739 138.713C180.961 138.719 181.128 138.727 181.242 138.739V140.784C181.174 140.767 181.017 140.741 180.773 140.707C180.534 140.668 180.282 140.648 180.015 140.648C179.378 140.648 178.81 140.781 178.31 141.048C177.816 141.31 177.424 141.673 177.134 142.139C176.85 142.599 176.708 143.125 176.708 143.716V152H174.696ZM190.14 138.909V140.614H183.355V138.909H190.14ZM185.333 135.773H187.344V148.25C187.344 148.818 187.426 149.244 187.591 149.528C187.762 149.807 187.978 149.994 188.239 150.091C188.506 150.182 188.787 150.227 189.083 150.227C189.304 150.227 189.486 150.216 189.628 150.193C189.77 150.165 189.884 150.142 189.969 150.125L190.378 151.932C190.242 151.983 190.051 152.034 189.807 152.085C189.563 152.142 189.253 152.17 188.878 152.17C188.31 152.17 187.753 152.048 187.208 151.804C186.668 151.56 186.219 151.188 185.861 150.688C185.509 150.188 185.333 149.557 185.333 148.795V135.773ZM198.513 152.273C197.252 152.273 196.164 151.994 195.249 151.438C194.34 150.875 193.638 150.091 193.144 149.085C192.655 148.074 192.411 146.898 192.411 145.557C192.411 144.216 192.655 143.034 193.144 142.011C193.638 140.983 194.326 140.182 195.206 139.608C196.093 139.028 197.127 138.739 198.309 138.739C198.99 138.739 199.664 138.852 200.328 139.08C200.993 139.307 201.598 139.676 202.144 140.188C202.689 140.693 203.124 141.364 203.448 142.199C203.772 143.034 203.934 144.062 203.934 145.284V146.136H193.843V144.398H201.888C201.888 143.659 201.74 143 201.445 142.42C201.155 141.841 200.74 141.384 200.201 141.048C199.667 140.713 199.036 140.545 198.309 140.545C197.507 140.545 196.814 140.744 196.229 141.142C195.65 141.534 195.203 142.045 194.891 142.676C194.578 143.307 194.422 143.983 194.422 144.705V145.864C194.422 146.852 194.593 147.69 194.934 148.378C195.28 149.06 195.76 149.58 196.374 149.938C196.988 150.29 197.701 150.466 198.513 150.466C199.042 150.466 199.519 150.392 199.945 150.244C200.377 150.091 200.749 149.864 201.061 149.562C201.374 149.256 201.615 148.875 201.786 148.42L203.729 148.966C203.525 149.625 203.181 150.205 202.698 150.705C202.215 151.199 201.618 151.585 200.908 151.864C200.198 152.136 199.4 152.273 198.513 152.273ZM208.142 138.909L211.278 144.261L214.414 138.909H216.733L212.505 145.455L216.733 152H214.414L211.278 146.92L208.142 152H205.824L209.983 145.455L205.824 138.909H208.142ZM226.353 152V138.909H228.296V140.955H228.466C228.739 140.256 229.179 139.713 229.787 139.327C230.395 138.935 231.125 138.739 231.978 138.739C232.841 138.739 233.56 138.935 234.134 139.327C234.713 139.713 235.165 140.256 235.489 140.955H235.625C235.961 140.278 236.463 139.741 237.134 139.344C237.804 138.94 238.608 138.739 239.546 138.739C240.716 138.739 241.674 139.105 242.418 139.838C243.162 140.565 243.534 141.699 243.534 143.239V152H241.523V143.239C241.523 142.273 241.259 141.582 240.73 141.168C240.202 140.753 239.58 140.545 238.864 140.545C237.944 140.545 237.23 140.824 236.725 141.381C236.219 141.932 235.966 142.631 235.966 143.477V152H233.921V143.034C233.921 142.29 233.679 141.69 233.196 141.236C232.713 140.776 232.091 140.545 231.33 140.545C230.807 140.545 230.319 140.685 229.864 140.963C229.415 141.241 229.051 141.628 228.773 142.122C228.5 142.611 228.364 143.176 228.364 143.818V152H226.353ZM252.701 152.273C251.439 152.273 250.351 151.994 249.436 151.438C248.527 150.875 247.826 150.091 247.331 149.085C246.843 148.074 246.598 146.898 246.598 145.557C246.598 144.216 246.843 143.034 247.331 142.011C247.826 140.983 248.513 140.182 249.394 139.608C250.28 139.028 251.314 138.739 252.496 138.739C253.178 138.739 253.851 138.852 254.516 139.08C255.181 139.307 255.786 139.676 256.331 140.188C256.877 140.693 257.311 141.364 257.635 142.199C257.959 143.034 258.121 144.062 258.121 145.284V146.136H248.03V144.398H256.076C256.076 143.659 255.928 143 255.632 142.42C255.343 141.841 254.928 141.384 254.388 141.048C253.854 140.713 253.223 140.545 252.496 140.545C251.695 140.545 251.002 140.744 250.417 141.142C249.837 141.534 249.391 142.045 249.078 142.676C248.766 143.307 248.61 143.983 248.61 144.705V145.864C248.61 146.852 248.78 147.69 249.121 148.378C249.468 149.06 249.948 149.58 250.561 149.938C251.175 150.29 251.888 150.466 252.701 150.466C253.229 150.466 253.706 150.392 254.132 150.244C254.564 150.091 254.936 149.864 255.249 149.562C255.561 149.256 255.803 148.875 255.973 148.42L257.917 148.966C257.712 149.625 257.368 150.205 256.885 150.705C256.402 151.199 255.806 151.585 255.096 151.864C254.385 152.136 253.587 152.273 252.701 152.273ZM261.181 152V138.909H263.124V140.886H263.26C263.499 140.239 263.931 139.713 264.556 139.31C265.181 138.906 265.885 138.705 266.669 138.705C266.817 138.705 267.002 138.707 267.223 138.713C267.445 138.719 267.613 138.727 267.726 138.739V140.784C267.658 140.767 267.502 140.741 267.257 140.707C267.019 140.668 266.766 140.648 266.499 140.648C265.863 140.648 265.294 140.781 264.794 141.048C264.3 141.31 263.908 141.673 263.618 142.139C263.334 142.599 263.192 143.125 263.192 143.716V152H261.181ZM274.996 157.182C274.025 157.182 273.189 157.057 272.49 156.807C271.792 156.562 271.209 156.239 270.743 155.835C270.283 155.438 269.917 155.011 269.644 154.557L271.246 153.432C271.428 153.67 271.658 153.943 271.936 154.25C272.215 154.562 272.596 154.832 273.078 155.06C273.567 155.293 274.206 155.409 274.996 155.409C276.053 155.409 276.925 155.153 277.613 154.642C278.3 154.131 278.644 153.33 278.644 152.239V149.58H278.473C278.326 149.818 278.115 150.114 277.843 150.466C277.576 150.812 277.189 151.122 276.684 151.395C276.184 151.662 275.507 151.795 274.655 151.795C273.598 151.795 272.65 151.545 271.809 151.045C270.973 150.545 270.311 149.818 269.823 148.864C269.34 147.909 269.098 146.75 269.098 145.386C269.098 144.045 269.334 142.878 269.806 141.884C270.277 140.884 270.934 140.111 271.775 139.565C272.615 139.014 273.587 138.739 274.689 138.739C275.542 138.739 276.218 138.881 276.718 139.165C277.223 139.443 277.61 139.761 277.877 140.119C278.15 140.472 278.36 140.761 278.507 140.989H278.712V138.909H280.655V152.375C280.655 153.5 280.4 154.415 279.888 155.119C279.382 155.83 278.701 156.349 277.843 156.679C276.99 157.014 276.042 157.182 274.996 157.182ZM274.928 149.989C275.735 149.989 276.417 149.804 276.973 149.435C277.53 149.065 277.953 148.534 278.243 147.841C278.533 147.148 278.678 146.318 278.678 145.352C278.678 144.409 278.536 143.577 278.252 142.855C277.968 142.134 277.547 141.568 276.99 141.159C276.434 140.75 275.746 140.545 274.928 140.545C274.076 140.545 273.365 140.761 272.797 141.193C272.235 141.625 271.811 142.205 271.527 142.932C271.249 143.659 271.11 144.466 271.11 145.352C271.11 146.261 271.252 147.065 271.536 147.764C271.826 148.457 272.252 149.003 272.814 149.401C273.382 149.793 274.087 149.989 274.928 149.989ZM284.337 152V138.909H286.348V152H284.337ZM285.36 136.727C284.968 136.727 284.63 136.594 284.346 136.327C284.067 136.06 283.928 135.739 283.928 135.364C283.928 134.989 284.067 134.668 284.346 134.401C284.63 134.134 284.968 134 285.36 134C285.752 134 286.087 134.134 286.365 134.401C286.65 134.668 286.792 134.989 286.792 135.364C286.792 135.739 286.65 136.06 286.365 136.327C286.087 136.594 285.752 136.727 285.36 136.727ZM292.044 144.125V152H290.032V138.909H291.975V140.955H292.146C292.453 140.29 292.919 139.756 293.544 139.352C294.169 138.943 294.975 138.739 295.964 138.739C296.85 138.739 297.626 138.92 298.291 139.284C298.956 139.642 299.473 140.188 299.842 140.92C300.211 141.648 300.396 142.568 300.396 143.682V152H298.385V143.818C298.385 142.79 298.118 141.989 297.583 141.415C297.049 140.835 296.316 140.545 295.385 140.545C294.743 140.545 294.169 140.685 293.663 140.963C293.163 141.241 292.768 141.648 292.478 142.182C292.189 142.716 292.044 143.364 292.044 144.125ZM309.355 157.182C308.384 157.182 307.549 157.057 306.85 156.807C306.151 156.562 305.569 156.239 305.103 155.835C304.642 155.438 304.276 155.011 304.003 154.557L305.605 153.432C305.787 153.67 306.017 153.943 306.296 154.25C306.574 154.562 306.955 154.832 307.438 155.06C307.926 155.293 308.566 155.409 309.355 155.409C310.412 155.409 311.284 155.153 311.972 154.642C312.659 154.131 313.003 153.33 313.003 152.239V149.58H312.833C312.685 149.818 312.475 150.114 312.202 150.466C311.935 150.812 311.549 151.122 311.043 151.395C310.543 151.662 309.867 151.795 309.015 151.795C307.958 151.795 307.009 151.545 306.168 151.045C305.333 150.545 304.671 149.818 304.182 148.864C303.699 147.909 303.458 146.75 303.458 145.386C303.458 144.045 303.694 142.878 304.165 141.884C304.637 140.884 305.293 140.111 306.134 139.565C306.975 139.014 307.946 138.739 309.049 138.739C309.901 138.739 310.577 138.881 311.077 139.165C311.583 139.443 311.969 139.761 312.236 140.119C312.509 140.472 312.719 140.761 312.867 140.989H313.071V138.909H315.015V152.375C315.015 153.5 314.759 154.415 314.248 155.119C313.742 155.83 313.06 156.349 312.202 156.679C311.35 157.014 310.401 157.182 309.355 157.182ZM309.287 149.989C310.094 149.989 310.776 149.804 311.333 149.435C311.89 149.065 312.313 148.534 312.603 147.841C312.892 147.148 313.037 146.318 313.037 145.352C313.037 144.409 312.895 143.577 312.611 142.855C312.327 142.134 311.907 141.568 311.35 141.159C310.793 140.75 310.105 140.545 309.287 140.545C308.435 140.545 307.725 140.761 307.157 141.193C306.594 141.625 306.171 142.205 305.887 142.932C305.608 143.659 305.469 144.466 305.469 145.352C305.469 146.261 305.611 147.065 305.895 147.764C306.185 148.457 306.611 149.003 307.174 149.401C307.742 149.793 308.446 149.989 309.287 149.989ZM90.7678 173.636C90.7678 171.489 91.0462 169.514 91.603 167.713C92.1655 165.906 92.9666 164.244 94.0064 162.727H95.7791C95.37 163.29 94.9865 163.983 94.6286 164.807C94.2763 165.625 93.9666 166.526 93.6996 167.509C93.4325 168.486 93.2223 169.497 93.0689 170.543C92.9212 171.588 92.8473 172.619 92.8473 173.636C92.8473 174.989 92.978 176.361 93.2393 177.753C93.5007 179.145 93.853 180.437 94.2962 181.631C94.7393 182.824 95.2337 183.795 95.7791 184.545H94.0064C92.9666 183.028 92.1655 181.369 91.603 179.568C91.0462 177.761 90.7678 175.784 90.7678 173.636ZM104.44 167.909V169.614H97.6562V167.909H104.44ZM99.6335 164.773H101.645V177.25C101.645 177.818 101.727 178.244 101.892 178.528C102.063 178.807 102.278 178.994 102.54 179.091C102.807 179.182 103.088 179.227 103.384 179.227C103.605 179.227 103.787 179.216 103.929 179.193C104.071 179.165 104.185 179.142 104.27 179.125L104.679 180.932C104.543 180.983 104.352 181.034 104.108 181.085C103.864 181.142 103.554 181.17 103.179 181.17C102.611 181.17 102.054 181.048 101.509 180.804C100.969 180.56 100.52 180.188 100.162 179.688C99.8097 179.188 99.6335 178.557 99.6335 177.795V164.773ZM115.034 170.67V168.83H125.534V170.67H115.034ZM115.034 175.716V173.875H125.534V175.716H115.034ZM136.752 181V179.466L142.513 173.159C143.19 172.42 143.746 171.778 144.184 171.233C144.621 170.682 144.945 170.165 145.156 169.682C145.371 169.193 145.479 168.682 145.479 168.148C145.479 167.534 145.332 167.003 145.036 166.554C144.746 166.105 144.349 165.759 143.843 165.514C143.337 165.27 142.769 165.148 142.138 165.148C141.468 165.148 140.883 165.287 140.383 165.565C139.888 165.838 139.505 166.222 139.232 166.716C138.965 167.21 138.832 167.79 138.832 168.455H136.82C136.82 167.432 137.056 166.534 137.528 165.761C137.999 164.989 138.641 164.386 139.454 163.955C140.272 163.523 141.19 163.307 142.207 163.307C143.229 163.307 144.136 163.523 144.925 163.955C145.715 164.386 146.335 164.969 146.783 165.702C147.232 166.435 147.457 167.25 147.457 168.148C147.457 168.79 147.34 169.418 147.107 170.031C146.88 170.639 146.482 171.318 145.914 172.068C145.352 172.812 144.57 173.722 143.57 174.795L139.65 178.989V179.125H147.763V181H136.752ZM154.317 178.614L154.181 179.534C154.085 180.182 153.937 180.875 153.738 181.614C153.545 182.352 153.343 183.048 153.133 183.702C152.923 184.355 152.749 184.875 152.613 185.261H151.079C151.153 184.898 151.249 184.418 151.369 183.821C151.488 183.224 151.607 182.557 151.727 181.818C151.852 181.085 151.954 180.335 152.033 179.568L152.136 178.614H154.317ZM174.067 170.841L172.26 171.352C172.146 171.051 171.979 170.759 171.757 170.474C171.541 170.185 171.246 169.946 170.871 169.759C170.496 169.571 170.016 169.477 169.43 169.477C168.629 169.477 167.962 169.662 167.428 170.031C166.899 170.395 166.635 170.858 166.635 171.42C166.635 171.92 166.817 172.315 167.18 172.605C167.544 172.895 168.112 173.136 168.885 173.33L170.828 173.807C171.999 174.091 172.871 174.526 173.445 175.111C174.018 175.69 174.305 176.437 174.305 177.352C174.305 178.102 174.089 178.773 173.658 179.364C173.232 179.955 172.635 180.42 171.868 180.761C171.101 181.102 170.209 181.273 169.192 181.273C167.857 181.273 166.751 180.983 165.876 180.403C165.001 179.824 164.447 178.977 164.214 177.864L166.124 177.386C166.305 178.091 166.649 178.619 167.155 178.972C167.666 179.324 168.334 179.5 169.158 179.5C170.095 179.5 170.839 179.301 171.391 178.903C171.947 178.5 172.226 178.017 172.226 177.455C172.226 177 172.067 176.619 171.749 176.312C171.43 176 170.942 175.767 170.283 175.614L168.101 175.102C166.902 174.818 166.021 174.378 165.459 173.781C164.902 173.179 164.624 172.426 164.624 171.523C164.624 170.784 164.831 170.131 165.246 169.562C165.666 168.994 166.237 168.548 166.959 168.224C167.686 167.901 168.51 167.739 169.43 167.739C170.726 167.739 171.743 168.023 172.482 168.591C173.226 169.159 173.754 169.909 174.067 170.841ZM184.901 170.67V168.83H195.401V170.67H184.901ZM184.901 175.716V173.875H195.401V175.716H184.901ZM212.517 181.239C211.392 181.239 210.389 181.045 209.509 180.659C208.634 180.273 207.938 179.736 207.42 179.048C206.909 178.355 206.631 177.551 206.585 176.636H208.733C208.778 177.199 208.972 177.685 209.312 178.094C209.653 178.497 210.099 178.81 210.651 179.031C211.202 179.253 211.813 179.364 212.483 179.364C213.233 179.364 213.898 179.233 214.477 178.972C215.057 178.71 215.511 178.347 215.841 177.881C216.17 177.415 216.335 176.875 216.335 176.261C216.335 175.619 216.176 175.054 215.858 174.565C215.54 174.071 215.074 173.685 214.46 173.406C213.847 173.128 213.097 172.989 212.21 172.989H210.812V171.114H212.21C212.903 171.114 213.511 170.989 214.034 170.739C214.563 170.489 214.974 170.136 215.27 169.682C215.571 169.227 215.722 168.693 215.722 168.08C215.722 167.489 215.591 166.974 215.33 166.537C215.068 166.099 214.699 165.759 214.222 165.514C213.75 165.27 213.193 165.148 212.551 165.148C211.949 165.148 211.381 165.259 210.847 165.48C210.318 165.696 209.886 166.011 209.551 166.426C209.216 166.835 209.034 167.33 209.006 167.909H206.96C206.994 166.994 207.27 166.193 207.787 165.506C208.304 164.812 208.98 164.273 209.815 163.886C210.656 163.5 211.58 163.307 212.585 163.307C213.665 163.307 214.591 163.526 215.364 163.963C216.136 164.395 216.73 164.966 217.145 165.676C217.56 166.386 217.767 167.153 217.767 167.977C217.767 168.96 217.509 169.798 216.991 170.491C216.48 171.185 215.784 171.665 214.903 171.932V172.068C216.006 172.25 216.866 172.719 217.486 173.474C218.105 174.224 218.415 175.153 218.415 176.261C218.415 177.21 218.156 178.062 217.639 178.818C217.128 179.568 216.429 180.159 215.543 180.591C214.656 181.023 213.648 181.239 212.517 181.239ZM226.23 172.273C226.23 174.42 225.949 176.398 225.386 178.205C224.83 180.006 224.031 181.665 222.991 183.182H221.219C221.628 182.619 222.009 181.926 222.361 181.102C222.719 180.284 223.031 179.386 223.298 178.409C223.565 177.426 223.773 176.412 223.92 175.366C224.074 174.315 224.151 173.284 224.151 172.273C224.151 170.92 224.02 169.548 223.759 168.156C223.497 166.764 223.145 165.472 222.702 164.278C222.259 163.085 221.764 162.114 221.219 161.364H222.991C224.031 162.881 224.83 164.543 225.386 166.349C225.949 168.151 226.23 170.125 226.23 172.273Z" fill="black"/>
<circle cx="33.5" cy="74.5" r="15" fill="#D9362B" stroke="black" stroke-width="5"/>
<circle cx="33.5" cy="33.5" r="15" fill="#2FA93D" stroke="black" stroke-width="5"/>
<path d="M59.5696 27.4545V42H57.8935V27.4545H59.5696ZM62.6396 42V31.0909H64.3157V42H62.6396ZM63.4918 29.2727C63.1651 29.2727 62.8834 29.1615 62.6467 28.9389C62.4147 28.7164 62.2987 28.4489 62.2987 28.1364C62.2987 27.8239 62.4147 27.5563 62.6467 27.3338C62.8834 27.1113 63.1651 27 63.4918 27C63.8185 27 64.0979 27.1113 64.3299 27.3338C64.5666 27.5563 64.685 27.8239 64.685 28.1364C64.685 28.4489 64.5666 28.7164 64.3299 28.9389C64.0979 29.1615 63.8185 29.2727 63.4918 29.2727ZM71.7891 46.3182C70.9794 46.3182 70.2834 46.214 69.701 46.0057C69.1186 45.8021 68.6333 45.5322 68.245 45.196C67.8615 44.8646 67.5561 44.5095 67.3288 44.1307L68.6641 43.1932C68.8156 43.392 69.0073 43.6193 69.2393 43.875C69.4714 44.1354 69.7886 44.3603 70.1911 44.5497C70.5982 44.7438 71.1309 44.8409 71.7891 44.8409C72.6697 44.8409 73.3965 44.6278 73.9695 44.2017C74.5424 43.7756 74.8288 43.108 74.8288 42.1989V39.983H74.6868C74.5637 40.1818 74.3885 40.428 74.1612 40.7216C73.9387 41.0104 73.6167 41.2685 73.1953 41.4957C72.7786 41.7183 72.2152 41.8295 71.505 41.8295C70.6243 41.8295 69.8336 41.6212 69.1328 41.2045C68.4368 40.7879 67.8852 40.1818 67.478 39.3864C67.0755 38.5909 66.8743 37.625 66.8743 36.4886C66.8743 35.3712 67.0708 34.3982 67.4638 33.5696C67.8568 32.7363 68.4036 32.0923 69.1044 31.6378C69.8052 31.1785 70.6148 30.9489 71.5334 30.9489C72.2436 30.9489 72.8071 31.0672 73.2237 31.304C73.6451 31.536 73.9671 31.8011 74.1896 32.0994C74.4169 32.393 74.5921 32.6345 74.7152 32.8239H74.8857V31.0909H76.505V42.3125C76.505 43.25 76.2919 44.0123 75.8658 44.5994C75.4444 45.1913 74.8762 45.6245 74.1612 45.8991C73.451 46.1785 72.6603 46.3182 71.7891 46.3182ZM71.7322 40.3239C72.4046 40.3239 72.9728 40.17 73.4368 39.8622C73.9008 39.5545 74.2536 39.1117 74.495 38.5341C74.7365 37.9564 74.8572 37.2652 74.8572 36.4602C74.8572 35.6742 74.7389 34.9806 74.5021 34.3793C74.2654 33.7779 73.915 33.3068 73.451 32.9659C72.987 32.625 72.4141 32.4545 71.7322 32.4545C71.022 32.4545 70.4302 32.6345 69.9567 32.9943C69.4879 33.3542 69.1352 33.8371 68.8984 34.4432C68.6664 35.0492 68.5504 35.7216 68.5504 36.4602C68.5504 37.2178 68.6688 37.8878 68.9055 38.4702C69.147 39.0478 69.5021 39.5024 69.9709 39.8338C70.4444 40.1605 71.0315 40.3239 71.7322 40.3239ZM81.2493 35.4375V42H79.5732V27.4545H81.2493V32.7955H81.3913C81.647 32.232 82.0305 31.7846 82.5419 31.4531C83.058 31.117 83.7446 30.9489 84.6016 30.9489C85.3449 30.9489 85.996 31.098 86.5547 31.3963C87.1134 31.6899 87.5466 32.142 87.8544 32.7528C88.1669 33.3589 88.3232 34.1307 88.3232 35.0682V42H86.647V35.1818C86.647 34.3153 86.4221 33.6454 85.9723 33.1719C85.5272 32.6937 84.9093 32.4545 84.1186 32.4545C83.5694 32.4545 83.0769 32.5705 82.6413 32.8026C82.2105 33.0346 81.8696 33.3731 81.6186 33.8182C81.3724 34.2633 81.2493 34.803 81.2493 35.4375ZM96.1339 31.0909V32.5114H90.4805V31.0909H96.1339ZM92.1282 28.4773H93.8043V38.875C93.8043 39.3485 93.873 39.7036 94.0103 39.9403C94.1523 40.1723 94.3323 40.3286 94.5501 40.4091C94.7726 40.4848 95.007 40.5227 95.2532 40.5227C95.4379 40.5227 95.5894 40.5133 95.7077 40.4943C95.8261 40.4706 95.9208 40.4517 95.9918 40.4375L96.3327 41.9432C96.2191 41.9858 96.0605 42.0284 95.8569 42.071C95.6533 42.1184 95.3952 42.142 95.0827 42.142C94.6093 42.142 94.1452 42.0402 93.6907 41.8366C93.2409 41.633 92.8668 41.3229 92.5685 40.9062C92.275 40.4896 92.1282 39.964 92.1282 39.3295V28.4773ZM112.007 33.5341L110.502 33.9602C110.407 33.7093 110.267 33.4654 110.083 33.2287C109.903 32.9872 109.657 32.7884 109.344 32.6321C109.032 32.4759 108.632 32.3977 108.144 32.3977C107.476 32.3977 106.92 32.5516 106.475 32.8594C106.034 33.1624 105.814 33.5483 105.814 34.017C105.814 34.4337 105.966 34.7628 106.269 35.0043C106.572 35.2457 107.045 35.447 107.689 35.608L109.309 36.0057C110.284 36.2424 111.011 36.6046 111.489 37.0923C111.967 37.5753 112.206 38.1979 112.206 38.9602C112.206 39.5852 112.026 40.1439 111.667 40.6364C111.311 41.1288 110.814 41.517 110.175 41.8011C109.536 42.0852 108.792 42.2273 107.945 42.2273C106.832 42.2273 105.911 41.9858 105.182 41.5028C104.453 41.0199 103.991 40.3144 103.797 39.3864L105.388 38.9886C105.54 39.5758 105.826 40.0161 106.248 40.3097C106.674 40.6032 107.23 40.75 107.917 40.75C108.698 40.75 109.318 40.5843 109.777 40.2528C110.241 39.9167 110.473 39.5142 110.473 39.0455C110.473 38.6667 110.341 38.3494 110.076 38.0938C109.81 37.8333 109.403 37.6392 108.854 37.5114L107.036 37.0852C106.037 36.8485 105.303 36.4815 104.834 35.9844C104.37 35.4825 104.138 34.8551 104.138 34.1023C104.138 33.4867 104.311 32.9422 104.657 32.4688C105.007 31.9953 105.483 31.6236 106.084 31.3537C106.69 31.0838 107.377 30.9489 108.144 30.9489C109.223 30.9489 110.071 31.1856 110.686 31.6591C111.307 32.1326 111.747 32.7576 112.007 33.5341ZM121.604 37.5398V31.0909H123.281V42H121.604V40.1534H121.491C121.235 40.7074 120.837 41.1785 120.298 41.5668C119.758 41.9503 119.076 42.142 118.252 42.142C117.57 42.142 116.964 41.9929 116.434 41.6946C115.904 41.3916 115.487 40.937 115.184 40.331C114.881 39.7202 114.729 38.9508 114.729 38.0227V31.0909H116.406V37.9091C116.406 38.7045 116.628 39.339 117.073 39.8125C117.523 40.286 118.096 40.5227 118.792 40.5227C119.209 40.5227 119.632 40.4162 120.063 40.2031C120.499 39.9901 120.863 39.6634 121.157 39.223C121.455 38.7827 121.604 38.2216 121.604 37.5398ZM126.578 42V27.4545H128.254V32.8239H128.396C128.519 32.6345 128.69 32.393 128.907 32.0994C129.13 31.8011 129.447 31.536 129.859 31.304C130.276 31.0672 130.839 30.9489 131.549 30.9489C132.468 30.9489 133.278 31.1785 133.978 31.6378C134.679 32.0971 135.226 32.7481 135.619 33.5909C136.012 34.4337 136.208 35.428 136.208 36.5739C136.208 37.7292 136.012 38.7306 135.619 39.5781C135.226 40.4209 134.681 41.0743 133.985 41.5384C133.289 41.9976 132.487 42.2273 131.578 42.2273C130.877 42.2273 130.316 42.1113 129.895 41.8793C129.473 41.6425 129.149 41.375 128.922 41.0767C128.694 40.7737 128.519 40.5227 128.396 40.3239H128.197V42H126.578ZM128.225 36.5455C128.225 37.3693 128.346 38.0961 128.588 38.7259C128.829 39.3509 129.182 39.8409 129.646 40.196C130.11 40.5464 130.678 40.7216 131.35 40.7216C132.051 40.7216 132.636 40.5369 133.105 40.1676C133.578 39.7936 133.933 39.2917 134.17 38.6619C134.412 38.0275 134.532 37.322 134.532 36.5455C134.532 35.7784 134.414 35.0871 134.177 34.4716C133.945 33.8513 133.592 33.3613 133.119 33.0014C132.65 32.6368 132.061 32.4545 131.35 32.4545C130.669 32.4545 130.096 32.6274 129.632 32.973C129.168 33.3139 128.817 33.7921 128.581 34.4077C128.344 35.0185 128.225 35.7311 128.225 36.5455ZM145.022 34.983V36.5455H138.659V34.983H145.022ZM147.972 46.0909V31.0909H149.591V32.8239H149.79C149.913 32.6345 150.083 32.393 150.301 32.0994C150.524 31.8011 150.841 31.536 151.253 31.304C151.67 31.0672 152.233 30.9489 152.943 30.9489C153.862 30.9489 154.671 31.1785 155.372 31.6378C156.073 32.0971 156.62 32.7481 157.013 33.5909C157.406 34.4337 157.602 35.428 157.602 36.5739C157.602 37.7292 157.406 38.7306 157.013 39.5781C156.62 40.4209 156.075 41.0743 155.379 41.5384C154.683 41.9976 153.881 42.2273 152.972 42.2273C152.271 42.2273 151.71 42.1113 151.288 41.8793C150.867 41.6425 150.543 41.375 150.315 41.0767C150.088 40.7737 149.913 40.5227 149.79 40.3239H149.648V46.0909H147.972ZM149.619 36.5455C149.619 37.3693 149.74 38.0961 149.982 38.7259C150.223 39.3509 150.576 39.8409 151.04 40.196C151.504 40.5464 152.072 40.7216 152.744 40.7216C153.445 40.7216 154.03 40.5369 154.499 40.1676C154.972 39.7936 155.327 39.2917 155.564 38.6619C155.805 38.0275 155.926 37.322 155.926 36.5455C155.926 35.7784 155.808 35.0871 155.571 34.4716C155.339 33.8513 154.986 33.3613 154.513 33.0014C154.044 32.6368 153.455 32.4545 152.744 32.4545C152.063 32.4545 151.49 32.6274 151.026 32.973C150.562 33.3139 150.211 33.7921 149.974 34.4077C149.738 35.0185 149.619 35.7311 149.619 36.5455ZM163.369 42.2557C162.678 42.2557 162.051 42.1255 161.487 41.8651C160.924 41.5999 160.476 41.2188 160.145 40.7216C159.813 40.2197 159.648 39.6136 159.648 38.9034C159.648 38.2784 159.771 37.7718 160.017 37.3835C160.263 36.9905 160.592 36.6828 161.004 36.4602C161.416 36.2377 161.871 36.072 162.368 35.9631C162.87 35.8494 163.374 35.7595 163.881 35.6932C164.544 35.608 165.081 35.544 165.493 35.5014C165.91 35.4541 166.213 35.3759 166.402 35.267C166.596 35.1581 166.693 34.9687 166.693 34.6989V34.642C166.693 33.9413 166.501 33.3968 166.118 33.0085C165.739 32.6203 165.164 32.4261 164.392 32.4261C163.592 32.4261 162.964 32.6013 162.51 32.9517C162.055 33.3021 161.736 33.6761 161.551 34.0739L159.96 33.5057C160.244 32.8428 160.623 32.3267 161.097 31.9574C161.575 31.5833 162.096 31.3229 162.659 31.1761C163.227 31.0246 163.786 30.9489 164.335 30.9489C164.686 30.9489 165.088 30.9915 165.543 31.0767C166.002 31.1572 166.445 31.3253 166.871 31.581C167.302 31.8366 167.659 32.2225 167.943 32.7386C168.227 33.2547 168.369 33.946 168.369 34.8125V42H166.693V40.5227H166.608C166.494 40.7595 166.305 41.0128 166.04 41.2827C165.775 41.5526 165.422 41.7822 164.982 41.9716C164.541 42.161 164.004 42.2557 163.369 42.2557ZM163.625 40.75C164.288 40.75 164.847 40.6198 165.301 40.3594C165.76 40.099 166.106 39.7628 166.338 39.3509C166.575 38.9389 166.693 38.5057 166.693 38.0511V36.517C166.622 36.6023 166.466 36.6804 166.224 36.7514C165.988 36.8177 165.713 36.8769 165.401 36.929C165.093 36.9763 164.792 37.0189 164.499 37.0568C164.21 37.09 163.975 37.1184 163.795 37.142C163.36 37.1989 162.953 37.2912 162.574 37.419C162.2 37.5421 161.897 37.7292 161.665 37.9801C161.438 38.2263 161.324 38.5625 161.324 38.9886C161.324 39.571 161.539 40.0114 161.97 40.3097C162.406 40.6032 162.957 40.75 163.625 40.75ZM176.173 31.0909V32.5114H170.52V31.0909H176.173ZM172.167 28.4773H173.843V38.875C173.843 39.3485 173.912 39.7036 174.049 39.9403C174.191 40.1723 174.371 40.3286 174.589 40.4091C174.812 40.4848 175.046 40.5227 175.292 40.5227C175.477 40.5227 175.628 40.5133 175.747 40.4943C175.865 40.4706 175.96 40.4517 176.031 40.4375L176.372 41.9432C176.258 41.9858 176.1 42.0284 175.896 42.071C175.692 42.1184 175.434 42.142 175.122 42.142C174.648 42.142 174.184 42.0402 173.73 41.8366C173.28 41.633 172.906 41.3229 172.608 40.9062C172.314 40.4896 172.167 39.964 172.167 39.3295V28.4773ZM180.605 35.4375V42H178.929V27.4545H180.605V32.7955H180.747C181.002 32.232 181.386 31.7846 181.897 31.4531C182.413 31.117 183.1 30.9489 183.957 30.9489C184.7 30.9489 185.351 31.098 185.91 31.3963C186.469 31.6899 186.902 32.142 187.21 32.7528C187.522 33.3589 187.679 34.1307 187.679 35.0682V42H186.002V35.1818C186.002 34.3153 185.778 33.6454 185.328 33.1719C184.883 32.6937 184.265 32.4545 183.474 32.4545C182.925 32.4545 182.432 32.5705 181.997 32.8026C181.566 33.0346 181.225 33.3731 180.974 33.8182C180.728 34.2633 180.605 34.803 180.605 35.4375ZM205.29 31.0909L201.256 42H199.552L195.518 31.0909H197.336L200.347 39.7841H200.461L203.472 31.0909H205.29ZM211.686 42.2273C210.635 42.2273 209.728 41.9953 208.966 41.5312C208.208 41.0625 207.624 40.4091 207.212 39.571C206.804 38.7282 206.601 37.7481 206.601 36.6307C206.601 35.5133 206.804 34.5284 207.212 33.6761C207.624 32.8191 208.196 32.1515 208.93 31.6733C209.669 31.1903 210.531 30.9489 211.516 30.9489C212.084 30.9489 212.645 31.0436 213.199 31.233C213.753 31.4223 214.257 31.7301 214.712 32.1562C215.166 32.5777 215.528 33.1364 215.798 33.8324C216.068 34.5284 216.203 35.3854 216.203 36.4034V37.1136H207.794V35.6648H214.499C214.499 35.0492 214.375 34.5 214.129 34.017C213.888 33.5341 213.542 33.1529 213.092 32.8736C212.647 32.5942 212.122 32.4545 211.516 32.4545C210.848 32.4545 210.27 32.6203 209.783 32.9517C209.3 33.2784 208.928 33.7045 208.668 34.2301C208.407 34.7557 208.277 35.3191 208.277 35.9205V36.8864C208.277 37.7102 208.419 38.4086 208.703 38.9815C208.992 39.5497 209.392 39.983 209.903 40.2812C210.415 40.5748 211.009 40.7216 211.686 40.7216C212.126 40.7216 212.524 40.66 212.879 40.5369C213.239 40.4091 213.549 40.2197 213.81 39.9688C214.07 39.7131 214.271 39.3958 214.413 39.017L216.033 39.4716C215.862 40.0208 215.576 40.5038 215.173 40.9205C214.771 41.3324 214.274 41.6544 213.682 41.8864C213.09 42.1136 212.425 42.2273 211.686 42.2273ZM218.753 42V31.0909H220.372V32.7386H220.486C220.685 32.1989 221.045 31.7609 221.565 31.4247C222.086 31.0885 222.673 30.9205 223.327 30.9205C223.45 30.9205 223.604 30.9228 223.788 30.9276C223.973 30.9323 224.113 30.9394 224.207 30.9489V32.6534C224.151 32.6392 224.02 32.6179 223.817 32.5895C223.618 32.5563 223.407 32.5398 223.185 32.5398C222.654 32.5398 222.181 32.651 221.764 32.8736C221.352 33.0914 221.026 33.3944 220.784 33.7827C220.547 34.1662 220.429 34.6042 220.429 35.0966V42H218.753ZM231.622 31.0909V32.5114H225.969V31.0909H231.622ZM227.616 28.4773H229.293V38.875C229.293 39.3485 229.361 39.7036 229.499 39.9403C229.641 40.1723 229.821 40.3286 230.038 40.4091C230.261 40.4848 230.495 40.5227 230.741 40.5227C230.926 40.5227 231.078 40.5133 231.196 40.4943C231.314 40.4706 231.409 40.4517 231.48 40.4375L231.821 41.9432C231.707 41.9858 231.549 42.0284 231.345 42.071C231.142 42.1184 230.884 42.142 230.571 42.142C230.098 42.142 229.634 42.0402 229.179 41.8366C228.729 41.633 228.355 41.3229 228.057 40.9062C227.763 40.4896 227.616 39.964 227.616 39.3295V28.4773ZM238.6 42.2273C237.549 42.2273 236.642 41.9953 235.88 41.5312C235.122 41.0625 234.538 40.4091 234.126 39.571C233.719 38.7282 233.515 37.7481 233.515 36.6307C233.515 35.5133 233.719 34.5284 234.126 33.6761C234.538 32.8191 235.111 32.1515 235.844 31.6733C236.583 31.1903 237.445 30.9489 238.43 30.9489C238.998 30.9489 239.559 31.0436 240.113 31.233C240.667 31.4223 241.171 31.7301 241.626 32.1562C242.08 32.5777 242.442 33.1364 242.712 33.8324C242.982 34.5284 243.117 35.3854 243.117 36.4034V37.1136H234.708V35.6648H241.413C241.413 35.0492 241.29 34.5 241.043 34.017C240.802 33.5341 240.456 33.1529 240.006 32.8736C239.561 32.5942 239.036 32.4545 238.43 32.4545C237.762 32.4545 237.184 32.6203 236.697 32.9517C236.214 33.2784 235.842 33.7045 235.582 34.2301C235.321 34.7557 235.191 35.3191 235.191 35.9205V36.8864C235.191 37.7102 235.333 38.4086 235.617 38.9815C235.906 39.5497 236.306 39.983 236.817 40.2812C237.329 40.5748 237.923 40.7216 238.6 40.7216C239.04 40.7216 239.438 40.66 239.793 40.5369C240.153 40.4091 240.463 40.2197 240.724 39.9688C240.984 39.7131 241.185 39.3958 241.327 39.017L242.947 39.4716C242.776 40.0208 242.49 40.5038 242.087 40.9205C241.685 41.3324 241.188 41.6544 240.596 41.8864C240.004 42.1136 239.339 42.2273 238.6 42.2273ZM246.624 31.0909L249.238 35.5511L251.851 31.0909H253.783L250.26 36.5455L253.783 42H251.851L249.238 37.767L246.624 42H244.692L248.158 36.5455L244.692 31.0909H246.624Z" fill="black"/>
<path d="M62.5025 83.2273C61.4513 83.2273 60.5446 82.9953 59.7823 82.5312C59.0247 82.0625 58.44 81.4091 58.0281 80.571C57.6209 79.7282 57.4173 78.7481 57.4173 77.6307C57.4173 76.5133 57.6209 75.5284 58.0281 74.6761C58.44 73.8191 59.0129 73.1515 59.7468 72.6733C60.4854 72.1903 61.3472 71.9489 62.332 71.9489C62.9002 71.9489 63.4613 72.0436 64.0153 72.233C64.5692 72.4223 65.0735 72.7301 65.5281 73.1562C65.9826 73.5777 66.3448 74.1364 66.6147 74.8324C66.8846 75.5284 67.0195 76.3854 67.0195 77.4034V78.1136H58.6104V76.6648H65.315C65.315 76.0492 65.1919 75.5 64.9457 75.017C64.7042 74.5341 64.3585 74.1529 63.9087 73.8736C63.4637 73.5942 62.9381 73.4545 62.332 73.4545C61.6644 73.4545 61.0868 73.6203 60.5991 73.9517C60.1161 74.2784 59.7444 74.7045 59.484 75.2301C59.2236 75.7557 59.0934 76.3191 59.0934 76.9205V77.8864C59.0934 78.7102 59.2354 79.4086 59.5195 79.9815C59.8084 80.5497 60.2085 80.983 60.7198 81.2812C61.2312 81.5748 61.8254 81.7216 62.5025 81.7216C62.9428 81.7216 63.3406 81.66 63.6957 81.5369C64.0555 81.4091 64.3656 81.2197 64.6261 80.9688C64.8865 80.7131 65.0877 80.3958 65.2298 80.017L66.8491 80.4716C66.6786 81.0208 66.3922 81.5038 65.9897 81.9205C65.5872 82.3324 65.0901 82.6544 64.4982 82.8864C63.9064 83.1136 63.2411 83.2273 62.5025 83.2273ZM70.3168 87.0909C70.0327 87.0909 69.7794 87.0672 69.5568 87.0199C69.3343 86.9773 69.1804 86.9347 69.0952 86.892L69.5213 85.4148C69.9285 85.5189 70.2884 85.5568 70.6009 85.5284C70.9134 85.5 71.1903 85.3603 71.4318 85.1094C71.678 84.8632 71.9029 84.4631 72.1065 83.9091L72.419 83.0568L68.3849 72.0909H70.2031L73.2145 80.7841H73.3281L76.3395 72.0909H78.1577L73.527 84.5909C73.3187 85.1544 73.0606 85.6207 72.7528 85.9901C72.4451 86.3641 72.0876 86.6411 71.6804 86.821C71.2779 87.0009 70.8234 87.0909 70.3168 87.0909ZM84.5533 83.2273C83.5021 83.2273 82.5954 82.9953 81.8331 82.5312C81.0755 82.0625 80.4908 81.4091 80.0788 80.571C79.6716 79.7282 79.468 78.7481 79.468 77.6307C79.468 76.5133 79.6716 75.5284 80.0788 74.6761C80.4908 73.8191 81.0637 73.1515 81.7976 72.6733C82.5362 72.1903 83.398 71.9489 84.3828 71.9489C84.951 71.9489 85.5121 72.0436 86.0661 72.233C86.62 72.4223 87.1243 72.7301 87.5788 73.1562C88.0334 73.5777 88.3956 74.1364 88.6655 74.8324C88.9354 75.5284 89.0703 76.3854 89.0703 77.4034V78.1136H80.6612V76.6648H87.3658C87.3658 76.0492 87.2427 75.5 86.9964 75.017C86.755 74.5341 86.4093 74.1529 85.9595 73.8736C85.5144 73.5942 84.9889 73.4545 84.3828 73.4545C83.7152 73.4545 83.1375 73.6203 82.6499 73.9517C82.1669 74.2784 81.7952 74.7045 81.5348 75.2301C81.2744 75.7557 81.1442 76.3191 81.1442 76.9205V77.8864C81.1442 78.7102 81.2862 79.4086 81.5703 79.9815C81.8591 80.5497 82.2592 80.983 82.7706 81.2812C83.282 81.5748 83.8762 81.7216 84.5533 81.7216C84.9936 81.7216 85.3913 81.66 85.7464 81.5369C86.1063 81.4091 86.4164 81.2197 86.6768 80.9688C86.9373 80.7131 87.1385 80.3958 87.2805 80.017L88.8999 80.4716C88.7294 81.0208 88.4429 81.5038 88.0405 81.9205C87.638 82.3324 87.1409 82.6544 86.549 82.8864C85.9571 83.1136 85.2919 83.2273 84.5533 83.2273ZM104.972 74.5341L103.467 74.9602C103.372 74.7093 103.232 74.4654 103.048 74.2287C102.868 73.9872 102.621 73.7884 102.309 73.6321C101.996 73.4759 101.596 73.3977 101.109 73.3977C100.441 73.3977 99.8847 73.5516 99.4396 73.8594C98.9993 74.1624 98.7791 74.5483 98.7791 75.017C98.7791 75.4337 98.9306 75.7628 99.2337 76.0043C99.5367 76.2457 100.01 76.447 100.654 76.608L102.273 77.0057C103.249 77.2424 103.976 77.6046 104.454 78.0923C104.932 78.5753 105.171 79.1979 105.171 79.9602C105.171 80.5852 104.991 81.1439 104.631 81.6364C104.276 82.1288 103.779 82.517 103.14 82.8011C102.501 83.0852 101.757 83.2273 100.91 83.2273C99.7971 83.2273 98.8762 82.9858 98.147 82.5028C97.4179 82.0199 96.9562 81.3144 96.7621 80.3864L98.353 79.9886C98.5045 80.5758 98.791 81.0161 99.2124 81.3097C99.6385 81.6032 100.195 81.75 100.881 81.75C101.663 81.75 102.283 81.5843 102.742 81.2528C103.206 80.9167 103.438 80.5142 103.438 80.0455C103.438 79.6667 103.306 79.3494 103.04 79.0938C102.775 78.8333 102.368 78.6392 101.819 78.5114L100.001 78.0852C99.0017 77.8485 98.2678 77.4815 97.799 76.9844C97.335 76.4825 97.103 75.8551 97.103 75.1023C97.103 74.4867 97.2758 73.9422 97.6214 73.4688C97.9718 72.9953 98.4477 72.6236 99.049 72.3537C99.6551 72.0838 100.342 71.9489 101.109 71.9489C102.188 71.9489 103.036 72.1856 103.651 72.6591C104.272 73.1326 104.712 73.7576 104.972 74.5341ZM114.569 78.5398V72.0909H116.245V83H114.569V81.1534H114.456C114.2 81.7074 113.802 82.1785 113.262 82.5668C112.723 82.9503 112.041 83.142 111.217 83.142C110.535 83.142 109.929 82.9929 109.399 82.6946C108.868 82.3916 108.452 81.937 108.149 81.331C107.846 80.7202 107.694 79.9508 107.694 79.0227V72.0909H109.37V78.9091C109.37 79.7045 109.593 80.339 110.038 80.8125C110.488 81.286 111.061 81.5227 111.757 81.5227C112.173 81.5227 112.597 81.4162 113.028 81.2031C113.464 80.9901 113.828 80.6634 114.122 80.223C114.42 79.7827 114.569 79.2216 114.569 78.5398ZM119.543 83V68.4545H121.219V73.8239H121.361C121.484 73.6345 121.654 73.393 121.872 73.0994C122.095 72.8011 122.412 72.536 122.824 72.304C123.241 72.0672 123.804 71.9489 124.514 71.9489C125.433 71.9489 126.242 72.1785 126.943 72.6378C127.644 73.0971 128.191 73.7481 128.584 74.5909C128.977 75.4337 129.173 76.428 129.173 77.5739C129.173 78.7292 128.977 79.7306 128.584 80.5781C128.191 81.4209 127.646 82.0743 126.95 82.5384C126.254 82.9976 125.452 83.2273 124.543 83.2273C123.842 83.2273 123.281 83.1113 122.859 82.8793C122.438 82.6425 122.114 82.375 121.886 82.0767C121.659 81.7737 121.484 81.5227 121.361 81.3239H121.162V83H119.543ZM121.19 77.5455C121.19 78.3693 121.311 79.0961 121.553 79.7259C121.794 80.3509 122.147 80.8409 122.611 81.196C123.075 81.5464 123.643 81.7216 124.315 81.7216C125.016 81.7216 125.601 81.5369 126.07 81.1676C126.543 80.7936 126.898 80.2917 127.135 79.6619C127.376 79.0275 127.497 78.322 127.497 77.5455C127.497 76.7784 127.379 76.0871 127.142 75.4716C126.91 74.8513 126.557 74.3613 126.084 74.0014C125.615 73.6368 125.026 73.4545 124.315 73.4545C123.634 73.4545 123.061 73.6274 122.597 73.973C122.133 74.3139 121.782 74.7921 121.545 75.4077C121.309 76.0185 121.19 76.7311 121.19 77.5455ZM137.987 75.983V77.5455H131.624V75.983H137.987ZM140.936 87.0909V72.0909H142.556V73.8239H142.755C142.878 73.6345 143.048 73.393 143.266 73.0994C143.489 72.8011 143.806 72.536 144.218 72.304C144.634 72.0672 145.198 71.9489 145.908 71.9489C146.827 71.9489 147.636 72.1785 148.337 72.6378C149.038 73.0971 149.585 73.7481 149.978 74.5909C150.371 75.4337 150.567 76.428 150.567 77.5739C150.567 78.7292 150.371 79.7306 149.978 80.5781C149.585 81.4209 149.04 82.0743 148.344 82.5384C147.648 82.9976 146.846 83.2273 145.936 83.2273C145.236 83.2273 144.675 83.1113 144.253 82.8793C143.832 82.6425 143.507 82.375 143.28 82.0767C143.053 81.7737 142.878 81.5227 142.755 81.3239H142.613V87.0909H140.936ZM142.584 77.5455C142.584 78.3693 142.705 79.0961 142.946 79.7259C143.188 80.3509 143.541 80.8409 144.005 81.196C144.469 81.5464 145.037 81.7216 145.709 81.7216C146.41 81.7216 146.995 81.5369 147.463 81.1676C147.937 80.7936 148.292 80.2917 148.529 79.6619C148.77 79.0275 148.891 78.322 148.891 77.5455C148.891 76.7784 148.773 76.0871 148.536 75.4716C148.304 74.8513 147.951 74.3613 147.478 74.0014C147.009 73.6368 146.419 73.4545 145.709 73.4545C145.027 73.4545 144.454 73.6274 143.99 73.973C143.526 74.3139 143.176 74.7921 142.939 75.4077C142.703 76.0185 142.584 76.7311 142.584 77.5455ZM156.334 83.2557C155.643 83.2557 155.016 83.1255 154.452 82.8651C153.889 82.5999 153.441 82.2188 153.11 81.7216C152.778 81.2197 152.613 80.6136 152.613 79.9034C152.613 79.2784 152.736 78.7718 152.982 78.3835C153.228 77.9905 153.557 77.6828 153.969 77.4602C154.381 77.2377 154.836 77.072 155.333 76.9631C155.835 76.8494 156.339 76.7595 156.846 76.6932C157.508 76.608 158.046 76.544 158.458 76.5014C158.874 76.4541 159.177 76.3759 159.367 76.267C159.561 76.1581 159.658 75.9687 159.658 75.6989V75.642C159.658 74.9413 159.466 74.3968 159.083 74.0085C158.704 73.6203 158.129 73.4261 157.357 73.4261C156.557 73.4261 155.929 73.6013 155.475 73.9517C155.02 74.3021 154.701 74.6761 154.516 75.0739L152.925 74.5057C153.209 73.8428 153.588 73.3267 154.061 72.9574C154.54 72.5833 155.06 72.3229 155.624 72.1761C156.192 72.0246 156.751 71.9489 157.3 71.9489C157.65 71.9489 158.053 71.9915 158.507 72.0767C158.967 72.1572 159.409 72.3253 159.836 72.581C160.266 72.8366 160.624 73.2225 160.908 73.7386C161.192 74.2547 161.334 74.946 161.334 75.8125V83H159.658V81.5227H159.573C159.459 81.7595 159.27 82.0128 159.005 82.2827C158.739 82.5526 158.387 82.7822 157.946 82.9716C157.506 83.161 156.969 83.2557 156.334 83.2557ZM156.59 81.75C157.253 81.75 157.811 81.6198 158.266 81.3594C158.725 81.099 159.071 80.7628 159.303 80.3509C159.54 79.9389 159.658 79.5057 159.658 79.0511V77.517C159.587 77.6023 159.431 77.6804 159.189 77.7514C158.953 77.8177 158.678 77.8769 158.365 77.929C158.058 77.9763 157.757 78.0189 157.463 78.0568C157.175 78.09 156.94 78.1184 156.76 78.142C156.325 78.1989 155.917 78.2912 155.539 78.419C155.165 78.5421 154.862 78.7292 154.63 78.9801C154.402 79.2263 154.289 79.5625 154.289 79.9886C154.289 80.571 154.504 81.0114 154.935 81.3097C155.371 81.6032 155.922 81.75 156.59 81.75ZM169.138 72.0909V73.5114H163.484V72.0909H169.138ZM165.132 69.4773H166.808V79.875C166.808 80.3485 166.877 80.7036 167.014 80.9403C167.156 81.1723 167.336 81.3286 167.554 81.4091C167.777 81.4848 168.011 81.5227 168.257 81.5227C168.442 81.5227 168.593 81.5133 168.712 81.4943C168.83 81.4706 168.925 81.4517 168.996 81.4375L169.337 82.9432C169.223 82.9858 169.064 83.0284 168.861 83.071C168.657 83.1184 168.399 83.142 168.087 83.142C167.613 83.142 167.149 83.0402 166.695 82.8366C166.245 82.633 165.871 82.3229 165.572 81.9062C165.279 81.4896 165.132 80.964 165.132 80.3295V69.4773ZM173.57 76.4375V83H171.893V68.4545H173.57V73.7955H173.712C173.967 73.232 174.351 72.7846 174.862 72.4531C175.378 72.117 176.065 71.9489 176.922 71.9489C177.665 71.9489 178.316 72.098 178.875 72.3963C179.434 72.6899 179.867 73.142 180.175 73.7528C180.487 74.3589 180.643 75.1307 180.643 76.0682V83H178.967V76.1818C178.967 75.3153 178.742 74.6454 178.293 74.1719C177.848 73.6937 177.23 73.4545 176.439 73.4545C175.89 73.4545 175.397 73.5705 174.962 73.8026C174.531 74.0346 174.19 74.3731 173.939 74.8182C173.693 75.2633 173.57 75.803 173.57 76.4375ZM198.255 72.0909L194.221 83H192.517L188.483 72.0909H190.301L193.312 80.7841H193.426L196.437 72.0909H198.255ZM204.651 83.2273C203.6 83.2273 202.693 82.9953 201.931 82.5312C201.173 82.0625 200.588 81.4091 200.176 80.571C199.769 79.7282 199.566 78.7481 199.566 77.6307C199.566 76.5133 199.769 75.5284 200.176 74.6761C200.588 73.8191 201.161 73.1515 201.895 72.6733C202.634 72.1903 203.496 71.9489 204.48 71.9489C205.049 71.9489 205.61 72.0436 206.164 72.233C206.718 72.4223 207.222 72.7301 207.676 73.1562C208.131 73.5777 208.493 74.1364 208.763 74.8324C209.033 75.5284 209.168 76.3854 209.168 77.4034V78.1136H200.759V76.6648H207.463C207.463 76.0492 207.34 75.5 207.094 75.017C206.853 74.5341 206.507 74.1529 206.057 73.8736C205.612 73.5942 205.087 73.4545 204.48 73.4545C203.813 73.4545 203.235 73.6203 202.748 73.9517C202.265 74.2784 201.893 74.7045 201.632 75.2301C201.372 75.7557 201.242 76.3191 201.242 76.9205V77.8864C201.242 78.7102 201.384 79.4086 201.668 79.9815C201.957 80.5497 202.357 80.983 202.868 81.2812C203.38 81.5748 203.974 81.7216 204.651 81.7216C205.091 81.7216 205.489 81.66 205.844 81.5369C206.204 81.4091 206.514 81.2197 206.775 80.9688C207.035 80.7131 207.236 80.3958 207.378 80.017L208.998 80.4716C208.827 81.0208 208.541 81.5038 208.138 81.9205C207.736 82.3324 207.239 82.6544 206.647 82.8864C206.055 83.1136 205.39 83.2273 204.651 83.2273ZM211.718 83V72.0909H213.337V73.7386H213.451C213.65 73.1989 214.009 72.7609 214.53 72.4247C215.051 72.0885 215.638 71.9205 216.292 71.9205C216.415 71.9205 216.569 71.9228 216.753 71.9276C216.938 71.9323 217.078 71.9394 217.172 71.9489V73.6534C217.115 73.6392 216.985 73.6179 216.782 73.5895C216.583 73.5563 216.372 73.5398 216.15 73.5398C215.619 73.5398 215.146 73.651 214.729 73.8736C214.317 74.0914 213.99 74.3944 213.749 74.7827C213.512 75.1662 213.394 75.6042 213.394 76.0966V83H211.718ZM224.587 72.0909V73.5114H218.934V72.0909H224.587ZM220.581 69.4773H222.257V79.875C222.257 80.3485 222.326 80.7036 222.463 80.9403C222.605 81.1723 222.785 81.3286 223.003 81.4091C223.226 81.4848 223.46 81.5227 223.706 81.5227C223.891 81.5227 224.042 81.5133 224.161 81.4943C224.279 81.4706 224.374 81.4517 224.445 81.4375L224.786 82.9432C224.672 82.9858 224.514 83.0284 224.31 83.071C224.106 83.1184 223.848 83.142 223.536 83.142C223.062 83.142 222.598 83.0402 222.144 82.8366C221.694 82.633 221.32 82.3229 221.022 81.9062C220.728 81.4896 220.581 80.964 220.581 80.3295V69.4773ZM231.565 83.2273C230.514 83.2273 229.607 82.9953 228.845 82.5312C228.087 82.0625 227.502 81.4091 227.091 80.571C226.683 79.7282 226.48 78.7481 226.48 77.6307C226.48 76.5133 226.683 75.5284 227.091 74.6761C227.502 73.8191 228.075 73.1515 228.809 72.6733C229.548 72.1903 230.41 71.9489 231.395 71.9489C231.963 71.9489 232.524 72.0436 233.078 72.233C233.632 72.4223 234.136 72.7301 234.591 73.1562C235.045 73.5777 235.407 74.1364 235.677 74.8324C235.947 75.5284 236.082 76.3854 236.082 77.4034V78.1136H227.673V76.6648H234.377C234.377 76.0492 234.254 75.5 234.008 75.017C233.767 74.5341 233.421 74.1529 232.971 73.8736C232.526 73.5942 232.001 73.4545 231.395 73.4545C230.727 73.4545 230.149 73.6203 229.662 73.9517C229.179 74.2784 228.807 74.7045 228.547 75.2301C228.286 75.7557 228.156 76.3191 228.156 76.9205V77.8864C228.156 78.7102 228.298 79.4086 228.582 79.9815C228.871 80.5497 229.271 80.983 229.782 81.2812C230.294 81.5748 230.888 81.7216 231.565 81.7216C232.005 81.7216 232.403 81.66 232.758 81.5369C233.118 81.4091 233.428 81.2197 233.689 80.9688C233.949 80.7131 234.15 80.3958 234.292 80.017L235.912 80.4716C235.741 81.0208 235.455 81.5038 235.052 81.9205C234.65 82.3324 234.153 82.6544 233.561 82.8864C232.969 83.1136 232.304 83.2273 231.565 83.2273ZM239.589 72.0909L242.202 76.5511L244.816 72.0909H246.748L243.225 77.5455L246.748 83H244.816L242.202 78.767L239.589 83H237.657L241.123 77.5455L237.657 72.0909H239.589Z" fill="black"/>
<path d="M351.021 51.5358C356.904 40.7311 368.697 40.3194 368.697 40.3194C368.697 40.3194 370.114 54.165 366.853 61.2622C363.62 68.2992 353.231 76.0586 353.231 76.0586C353.231 76.0586 345.138 62.3405 351.021 51.5358Z" fill="#B4D2FF" stroke="black"/>
<path d="M349.449 92.7005C339.56 61.5805 298.077 32.7161 298.077 32.7161C298.077 32.7161 348.115 39.5336 378.063 23.4292" stroke="black" stroke-width="3" stroke-linecap="round"/>
<path d="M357.124 54.8904C360.321 46.2428 368.878 46.3995 368.878 46.3995C368.878 46.3995 370.522 49.1466 365.93 60.6317C361.337 72.1169 358.5 70.721 358.5 70.721C358.5 70.721 353.927 63.538 357.124 54.8904Z" fill="black" stroke="black"/>
<path d="M363.742 28.5426C363.742 28.5426 372.796 39.8686 367.325 57.7942C361.855 75.7199 344.696 79.4374 344.696 79.4374" stroke="black" stroke-width="3"/>
<path d="M1372.55 71.7273H1387.66" stroke="black"/>
<path d="M1375.73 80.4773C1375.73 80.4773 1376.52 84.4546 1379.7 84.4546C1382.89 84.4546 1385.27 80.4773 1385.27 80.4773H1388.45C1388.45 80.4773 1389.2 78.0832 1389.25 76.5C1389.31 74.6114 1388.45 71.7273 1388.45 71.7273H1386.86C1386.86 71.7273 1387.55 66.331 1388.45 62.9773C1389.53 59 1398 52.2218 1398 43.8864C1398 36.7273 1392.43 24 1379.7 24C1366.98 24 1363 36.7273 1363 43.8864C1363 51.0455 1371.64 59.6236 1372.55 62.9773C1373.45 66.331 1374.14 71.7273 1374.14 71.7273H1372.55C1372.55 71.7273 1370.84 74.5387 1370.95 76.5C1371.05 78.17 1372.55 80.4773 1372.55 80.4773H1375.73Z" fill="#F5ED00" fill-opacity="0.1" stroke="black" stroke-width="3"/>
<path d="M1373.34 79.6818H1386.86" stroke="black" stroke-width="2"/>
<path d="M1373.34 73.3182H1386.86" stroke="black" stroke-width="2"/>
<path d="M1377.32 71.7272C1377.32 71.7272 1371.75 51.0454 1371.75 43.8863C1371.75 36.7272 1373.76 47.3298 1375.73 47.0682C1378.27 46.7312 1374.82 41.2602 1377.32 40.7045C1380.03 40.1018 1377.72 47.0682 1380.5 47.0682C1383.28 47.0682 1380.94 40.2739 1383.68 40.7045C1386.46 41.1404 1381.75 47.1779 1384.48 47.8636C1386.83 48.4551 1389.25 36.7272 1389.25 43.8863C1389.25 51.0454 1382.89 71.7272 1382.89 71.7272" stroke="black" stroke-width="2"/>
</svg>
