<svg width="558" height="435" viewBox="0 0 558 435" fill="none" xmlns="http://www.w3.org/2000/svg">
<rect x="0.5" y="0.5" width="557" height="434" fill="#DADADA" stroke="black"/>
<rect x="1.5" y="1.5" width="14" height="432" fill="#D9D9D9" stroke="black" stroke-width="3"/>
<rect x="542.5" y="1.5" width="14" height="432" fill="#D9D9D9" stroke="black" stroke-width="3"/>
<rect x="95.5" y="69.5" width="199" height="299" fill="white" stroke="black"/>
<rect x="108.5" y="60.5" width="199" height="299" fill="white" stroke="black"/>
<rect x="119.5" y="72.5" width="199" height="299" fill="white" stroke="black"/>
<rect x="133.5" y="60.5" width="199" height="299" fill="white" stroke="black"/>
<rect x="146.5" y="72.5" width="199" height="299" fill="white" stroke="black"/>
<rect x="163.5" y="60.5" width="199" height="299" fill="white" stroke="black"/>
<rect x="180.5" y="72.5" width="199" height="299" fill="white" stroke="black"/>
<rect x="195.5" y="60.5" width="199" height="299" fill="white" stroke="black"/>
<rect x="208.5" y="70.5" width="199" height="299" fill="white" stroke="black"/>
<rect x="226.5" y="60.5" width="199" height="299" fill="white" stroke="black"/>
<rect x="246.5" y="72.5" width="199" height="299" fill="white" stroke="black"/>
<rect x="263.5" y="60.5" width="199" height="299" fill="white" stroke="black"/>
</svg>
